<?xml version="1.0" encoding="UTF-8"?>
<svg id="Layer_1" xmlns="http://www.w3.org/2000/svg" version="1.1" viewBox="0 0 1080 1080">
  <!-- Generator: Adobe Illustrator 29.5.1, SVG Export Plug-In . SVG Version: 2.1.0 Build 141)  -->
  <defs>
    <style>
      .st0 {
        fill: #fff;
      }
    </style>
  </defs>
  <path class="st0" d="M532.6,438.2l-106.6,171.2c-.7,1.1.1,2.5,1.4,2.4,18-.5,36.7,1.1,54.5.1,23.8-1.3,47.9-14.8,60.2-35.3,1.1-1.8,2.5-6.1,3.5-7.4s1.6,0,2.2-.6,2.6-6.3,3.7-8.2c14.1-24.5,52.1-32.8,61.6-57.5,7-18.4-6.1-28.4-23.6-23-12.9,3.9-24.3,15.2-33.2,25.3s-2.2.6-2.7-.5l-6.9-18.1c-.3-.8,0-1.7.9-2,2.7-1.1,5.3-2.3,8-3.3,22.4-8.1,67.3-14.5,85.8,3.9,18.4,18.2,19.9,71.1,28.4,96.9,3.1,9.5,10.9,29.2,23.6,22.8.6-.3,1.3-.2,1.8.3h0c.5.5.6,1.3.3,1.9-6,10-19.1,11.7-29.5,7.6-16-6.4-22.1-31.6-25.5-49.7s-2.8-1.7-3.1,0l-2.2,11.5s0,0,0,.1c-7.2,28.8-31.6,45.2-61.3,38.9-12.3-2.6-27.8-14.1-27.8-27.8v-2.2c0-1.8-2.5-2.2-3.1-.5l-10.4,30.7c-.2.6-.8,1.1-1.5,1.1h-136.4c-1,0-1.7-.9-1.6-1.8l.3-1.7c0-.2.1-.4.2-.6l106.3-169.1c.7-1.1,0-2.4-1.4-2.4h-54.1c-15.1,0-36.7,15.9-44.6,28.4s-.5,1-.9,1.8c-.8,1.7-3.5.8-3-1.1l9.1-33.2c.2-.7.8-1.2,1.5-1.2h124.5c1.3,0,2,1.4,1.4,2.4ZM621.3,492.4c.4,5,.4,9.8-.7,14.8-6.8,32-53.2,39.1-50.3,76.2,1.4,17.7,19.3,24.5,34.7,18.9,36.1-13.3,35.2-79.8,18.3-107.4-.4-.7-1.3-2.1-2-2.5Z"/>
  <path class="st0" d="M84.3,616.7v-2.1c8.2.2,12.9-3.8,16-11l59.1-167.6c.4-.3.8-.2,1.3-.3,4.7-.6,19-.6,23.7,0s1.2,0,1.5.6l59,168.2c3.6,8.1,9.4,11.1,18.1,9.6,11.2-2,11.5-14.6,12.9-23.8-1.9-41.9,2.4-85.8,0-127.5-.6-10.4-3.2-25.6-16.8-24.4v-1.8c.6-1.5,4.1-.7,5.5-.9,13.6-1.7,26.2-6.4,35.4-16.8v169.7c1.2,10.7,2.1,26.8,16.8,25.4v2.6h-109.7v-2.1c7.8,0,12.1-2.3,11-10.7l-18.6-52.8c-7.6,15.7-19.2,21.7-36.6,18.7-11.6-2-30.5-13.4-41.4-5.4s-7.8,13.7-9.4,18.9c-2.9,8.9-2.7,12.6.7,21.4,3,7.8,7.9,10.1,16.1,9.8v2.1h-44.6ZM123.2,552.7c8.5-10.2,19.5-11.7,32-9.2,13.2,2.7,31.3,14.8,42.4,2l-35.6-102.4-38.8,109.6Z"/>
  <path class="st0" d="M722.1,473h49.3c-.4-12.1.5-24.8,6.7-35.5,11.8-20.2,36.8-22.5,57.3-15.1,2.1.8,10.4,4.4,11.6,5.7s.7,1.1.4,2l-8,20.3c-5.2-6.7-10-14.6-16.5-20.2-9.4-8.1-20.7-10.8-25.4,3.4-4,12.2-.9,26.6-1.9,39.3h32.5v5.2h-32.5v111.5c.9,10.5,2.7,25.9,16.8,24.4v2.6h-57.7v-2.6c14.9,1.4,15.7-15.7,16.8-26.5v-109.4h-49.4v110.9c1,10.6,2.4,26.4,16.8,24.9v2.6h-57.7v-2.6c14.7,1.4,15.8-15.2,16.8-25.9v-109.9h-16.8c.2-1.7-.7-4,.8-5.2h16c-.4-12,.5-24.5,6.6-35.1,11.6-20.5,37-22.9,57.5-15.4,2.1.8,10.4,4.4,11.6,5.7s.7,1.1.4,2l-7.5,19.8c-.6.9-.8.2-1.3-.3-2.4-2.4-5.4-7.9-7.9-11-6.1-7.4-20-21.8-29.7-11.8-2.5,2.6-5.5,11.5-5.5,15v31.2Z"/>
  <path class="st0" d="M895.2,473.7c74.8-6.6,109.5,87.7,49.6,129.8-50.3,35.3-117.2-3.7-113-64.7,2.3-32.7,30.5-62.2,63.4-65.1ZM890.5,480c-30.1,2.3-40.1,35.8-37.2,61.5,3.3,28,25.9,66.2,56.9,68.5,33.8,2.5,46-32.5,43.3-60.5-3-30.1-28.6-72-63-69.4Z"/>
  <path class="st0" d="M470.7,666l-.6,3.1h-4.7c2.5,6.6-2.6,13.5-9.2,14.2s-5.9-1.6-8.1,1.4c4.1,2.8,13.9.4,15.5,6.5,2.8,10.6-13.6,14.8-20.5,9.5s-2.3-10.2,2.4-12.1l-.3-1.1-2.2-2.2,4.6-4.3c-3.5-5.1-1.2-11.5,4.2-14.1s12.6,0,18.9-.8ZM454.2,669.2c-1.2.3-3.2,2.1-3.7,3.2-3.7,9.2,10.6,9.8,11.5,1.4s-4-5.5-7.8-4.6ZM446.7,690.8c-8,8.6,10.3,11.9,12.7,4.6s-6.3-5.5-10-6.3c-.5,0-2.3,1.3-2.7,1.7Z"/>
  <path class="st0" d="M380.4,671.2l17.3-15.5,5.2-.3-15.2,14.4,9.5,21.2h-5.2c0,0-8.2-17.8-8.2-17.8-.7-.2-4.5,3.8-4.8,4.6-.8,1.9-1.8,12.7-2.3,13.2h-4.2s6-35.1,6-35.1c.6-.8,4.2-.8,4.4.3l-2.5,15Z"/>
  <path class="st0" d="M498.9,665.6c18.6-2.9,16.8,23.2,1.7,25.9-18.7,3.3-17.4-23.4-1.7-25.9ZM498.9,669.3c-8.3,1.7-11.3,17.8-1.7,18.8s15.2-21.6,1.7-18.8Z"/>
  <path class="st0" d="M654.8,665.6c18.6-2.9,16.8,23.2,1.7,25.9-18.7,3.3-17.4-23.4-1.7-25.9ZM654.8,669.3c-8.3,1.7-11.3,17.8-1.7,18.8s15.2-21.6,1.7-18.8Z"/>
  <path class="st0" d="M575.1,655.5l-.5,3.7h-17.3s-1.6,12.6-1.6,12.6h13.6c0,1,.4,2.7-.9,3.1h-13.8c0,0-2.7,16.3-2.7,16.3h-4.2s6.6-35.6,6.6-35.6h20.7Z"/>
  <path class="st0" d="M690.1,691.2c.6-4.5,2.2-9.5,2.6-14,.3-4.3.5-8.1-4.9-8.1-10.8,0-9.5,14.2-11.5,21.6l-4.5.5,4.7-24.9,3.7-.2-.5,4.2c3.6-3.8,8.4-6.3,13.6-3.9,8.2,3.6,1.4,17.5,1.5,24l-.8.8h-3.9Z"/>
  <path class="st0" d="M437,691.1h-4.2c-.5-5.8,7.5-22-2.9-22-10.3,0-9.5,14.9-11.3,22h-4.2s4.2-25.1,4.2-25.1h3.7s0,3.6,0,3.6c3.4-3.1,7.8-5.2,12.5-3.8,9.3,2.7,2.3,18.7,2.2,25.3Z"/>
  <path class="st0" d="M582.5,666c-.2,4.8-4.3,16.1-2,20.1s3,2,4.9,1.9c10.2-.3,9.1-14.8,11.2-21.8l4.3-.3-4.2,25.2h-4.2s.5-4.2.5-4.2c-3.3,3.3-6.3,5.3-11.2,4.7-11.4-1.5-4.1-18-3.6-25l.5-.7h3.8Z"/>
  <path class="st0" d="M625,673.3c-4.3.7-3.3-.6-5-2.7-3.1-3.7-11.7-.8-8.7,3.9,1.6,2.5,12.1,1.1,12.7,8,1,11.8-22,12.9-20.5.3h4.2c-.7,7.8,13.9,6.4,11.9,0-1.2-3.6-13.2-2.2-13.3-9.1-.1-9.9,19.9-11.8,18.8-.3Z"/>
  <path class="st0" d="M533.1,654.4l-.2,3.2c-5.9.8-6.2,2.8-7.1,8.1l6.3.3-.6,3.6h-6.2c0,0-3.8,21.5-3.8,21.5h-4.1c0,0,3.7-21.2,3.7-21.2l-3.7-.3.6-3.6h3.6c1-7.7,3.1-12,11.6-11.6Z"/>
  <polygon class="st0" points="411.4 666 407.1 690.3 406.3 691.1 402.4 691.2 406.6 666 411.4 666"/>
  <polygon class="st0" points="638.6 666 634.4 691.2 629.7 691.2 634.4 666.3 638.6 666"/>
  <path class="st0" d="M410.2,654.5c3.6-.5,4.3,4.8,1.9,5.6-5,1.7-5.9-5-1.9-5.6Z"/>
  <path class="st0" d="M635.6,659.6c-2.7-2.6,2.3-7.2,4.6-3.8s-2.4,6.1-4.6,3.8Z"/>
</svg>