<?xml version="1.0" encoding="UTF-8"?>
<svg id="Layer_1" xmlns="http://www.w3.org/2000/svg" version="1.1" viewBox="0 0 1080 1080">
  <!-- Generator: Adobe Illustrator 29.5.1, SVG Export Plug-In . SVG Version: 2.1.0 Build 141)  -->
  <defs>
    <style>
      .st0 {
        fill: #fff;
      }
    </style>
  </defs>
  <g>
    <rect class="st0" x="351.9" y="346.5" width="221.8" height="48.7" transform="translate(397.8 -218.7) rotate(45)"/>
    <rect class="st0" x="351.6" y="469" width="222.1" height="48.7" transform="translate(-213.3 471.6) rotate(-45)"/>
  </g>
  <g>
    <rect class="st0" x="541.6" y="412.8" width="172.1" height="37.8" transform="translate(1376.7 293.1) rotate(135)"/>
    <rect class="st0" x="541.6" y="507.9" width="172.3" height="37.8" transform="translate(699.2 1343.1) rotate(-135)"/>
  </g>
  <g>
    <path class="st0" d="M197.8,698.3c0-29.3,22.4-50,52.9-50s32,6.5,41.4,18.1l-17.3,15.7c-6-7.3-13.5-11.3-22.7-11.3-15.8,0-26.8,11-26.8,27.5s11,27.5,26.8,27.5,16.6-4,22.7-11.3l17.3,15.7c-9.3,11.7-23.6,18.1-41.4,18.1-30.5,0-52.9-20.8-52.9-50Z"/>
    <path class="st0" d="M372.5,705.1v41.4h-24.3v-9.6c-3.7,7.1-11.1,10.9-22,10.9-17.9,0-27.8-10-27.8-23s10-22.3,33.1-22.3h14.8c-.4-7.6-5.5-11.8-15.8-11.8s-15.1,2.5-20.2,6.5l-8.8-17.7c8.5-5.6,21.2-8.7,32.9-8.7,24.2,0,38.1,10.7,38.1,34.4ZM346.4,722.5v-6.5h-11.3c-8.4,0-11.4,3-11.4,7.6s3.6,7.6,9.8,7.6,10.9-2.8,12.9-8.7Z"/>
    <path class="st0" d="M383.1,740l7.8-17.9c6.9,4.3,16.9,6.9,26,6.9s11.7-1.9,11.7-5.1c0-10-44,1.4-44-28.5s12.9-24.7,36.3-24.7,22,2.2,29.4,6.3l-7.8,17.7c-7.4-4.1-14.9-5.5-21.4-5.5s-12,2.5-12,5.2c0,10.3,43.9-.8,43.9,28.7s-12.7,24.5-36.8,24.5-25.7-3.2-33-7.7Z"/>
    <path class="st0" d="M543.6,703.8v42.6h-26.1v-38.4c0-10.7-4.7-15.3-12.2-15.3s-14.8,5.2-14.8,17.6v36h-26.1v-102h26.1v34.4c5.8-5.4,13.6-8.1,22.4-8.1,17.5,0,30.8,10,30.8,33.1Z"/>
    <path class="st0" d="M692.8,720c0,16.6-13.7,26.4-39.6,26.4h-52v-96.2h49.2c25.3,0,37.7,10.3,37.7,25.2s-4.7,16.6-12.9,20.9c10.9,3.8,17.6,12.1,17.6,23.8ZM628.2,669.9v18.6h18.7c9.1,0,13.7-3.2,13.7-9.3s-4.7-9.2-13.7-9.2h-18.7ZM665.3,717c0-6.6-5-9.8-14.3-9.8h-22.8v19.5h22.8c9.3,0,14.3-3.2,14.3-9.8Z"/>
    <path class="st0" d="M701.1,709c0-22.4,17.7-38.4,42.1-38.4s42.1,15.9,42.1,38.4-17.5,38.6-42.1,38.6-42.1-16.1-42.1-38.6ZM758.8,709c0-11.3-6.7-17.6-15.7-17.6s-15.7,6.3-15.7,17.6,6.9,17.9,15.7,17.9,15.7-6.5,15.7-17.9Z"/>
    <path class="st0" d="M842.4,746.4l-13.3-19.5-14.3,19.5h-28.3l28.3-37.3-27.5-37.3h29.4l13.2,18.8,13.7-18.8h27.6l-27.5,36.3,28.5,38.2h-29.8Z"/>
  </g>
</svg>