<?xml version="1.0" encoding="UTF-8"?>
<svg id="Layer_1" xmlns="http://www.w3.org/2000/svg" version="1.1" viewBox="0 0 1080 1080">
  <!-- Generator: Adobe Illustrator 29.5.1, SVG Export Plug-In . SVG Version: 2.1.0 Build 141)  -->
  <defs>
    <style>
      .st0 {
        fill: #fff;
      }
    </style>
  </defs>
  <path class="st0" d="M822.8,412h-87.2l-28.8-.2h0l-52.6-.3-113.3-61-68.3,35.4v-23.5l-1.5-1.5h-32.9v43.3c-1.8,1.1-11.3,7.9-12,7.9h-71.5c-.2.4-.5.3-.8,0h-83.2c-15.5,0-38.1,21.3-38.1,37.1v25.6h0v277.1c0,17.1,24,37.8,41.1,37.1h546.9c20.2-2.3,36.1-18,39.1-38.2v-298.5c.2-17-20.1-40.1-37.1-40.1h.2ZM655.3,419.3h169.1v1.1h-169.1v-1.1h0ZM559.3,368.1c-3.8-1.2-9-3.2-11.5-6.2,3.8,1.2,9,3.2,11.5,6.2ZM538.4,358.2c2.6-1.1,6.1,0,7.3,2.7l-5.3-.7-57.4,28.8,55.2-30.8h.1ZM516.5,415.6c41.9-10.2,90.9,11.2,110.8,49.4l156.9.2c12.1,1.1,21,7.2,25,18.8,3.6,75.7.5,152.2,1.6,228.1-1,14.2-12.5,25-26.6,25.6h-475.9c-13.9-1.2-24.3-11.7-25.6-25.6v-220.3c1.9-16.2,11.4-25.4,27.7-26.6h139.7c14.3-24.6,38.6-42.8,66.5-49.6h-.1ZM240,458.5v6.8c-1.9.2-1-2.4-1-3.6v-6.8c1.9-.2,1,2.4,1,3.6ZM260.9,425c-9.5,4.4-18.9,16.5-19.8,27.1-1.4,1.8-1.1-1.2-1-2.1,1.8-15,14.3-27.6,29-30.5l155.2-.2,20.3-9.4v-42.8h20.3c.2,0,1.6,1.4,1.5,2.1h-19.8l-1.2,41-16.5,9.6c-39.2.4-78.4.7-117.4,1.5-15.1.3-37.2-2.6-50.6,3.6h-.1ZM819.7,772.1c-33.8,3.1-75.8-.3-110.7,0-142.1,1.2-284.5,1.3-426.8,1.1l-9.8-2.2h547.4c9.3-1.3,19-10,21.9-18.8.1,10.4-12.1,19-21.9,19.9Z"/>
  <path class="st0" d="M688.7,612.5c1.9-5.4,6.7-6.8,7.3-12.9,2.6-25.8-2.1-55.8,0-82.1l-7.3-11.9h73c2.6,1,5.1,21.1,6.9,24.9-2,1.8-10.5-7.5-12.5-8.8-10.4-6.8-22.4-2-34.2-4.7v37.4h18.2c3.5,0,9.9-4.9,14-4.2v18.7c-3.1.8-8.6-4.2-10.9-4.2h-21.3v36.3h24.4c1.3,0,6.6-2.5,8.1-3.3,6.1-3.4,9-10,15.2-11.2l-5.2,25.9h-75.7ZM703.2,519.1h-2.1v79.9h2.1v-79.9Z"/>
  <path class="st0" d="M322.4,612.5c3.7-6.1,7.6-7.2,8.3-15,2.3-25-1.9-53.5,0-78.9.2-5.9-7.5-7.4-7.3-12.9h73.5c0,.1,6.4,24.9,6.4,24.9-2,1.5-9.9-6.7-12.1-8.1-11.8-7.7-21.3-5.1-34.6-4.3-.2,9.5.3,19.1,0,28.6s-2.1,7.7.5,7.7h17.6c3.1,0,9.1-4.7,13-4.2v18.7c-2.7,0-8.9-4.2-10.9-4.2h-21.3c.7,9.9,1.3,19.7,1.1,29.6,0,2.6-2.1,5,.5,6.7h23.9c.4,0,6.3-2.5,7.3-3.1,3.3-1.7,14.1-12.9,16-11.4l-6.7,25.9h-75.2,0ZM338,519.1h-2.1v79.9c.7,0,2.1-1.4,2.1-1.6v-78.3h0Z"/>
  <path class="st0" d="M613,518c-14.3-4.6-21.6,5.9-31.6,13.5l5.3-25,77.7-.7,6.7,25.7c-1.9,2-11.2-9.1-13-10.4-6.3-4.6-11.9-2.9-19.2-3.1v84.6c0,1,7,7.5,7.3,9.9h-40.5c.2-2.2,7.3-8.2,7.3-8.8v-85.6h0ZM621.3,597.9v-78.3l-2.1-1c-1.1.8-1,1.9-1.1,3.1-1.7,18.7-.2,44.5,1.1,63.4s-.4,7.9,0,11.4.8,3.2,2.1,1.5h0Z"/>
  <path class="st0" d="M465.6,505.6v1.5c-.8,1.5-7.3,7.8-7.3,8.3v84.1l1.6,1.6h21.8c7.1,0,15.1-10.1,20.2-14s1.3-2,3.1-1.5l-5.2,27h-74.7c2.6-5.7,6.7-6,7.3-12.9,2.4-26-1.9-55.6,0-82,0-5.3-5.8-7.2-7.3-11.9h40.5v-.2ZM440.7,519.1h-2.1v79.9c.7,0,2.1-1.4,2.1-1.6v-78.3h0Z"/>
  <path class="st0" d="M564.2,505.6c-2.6,5.7-6.7,6-7.3,12.9-2.4,26.4,2,56.4,0,83.1l6.3,10.8h-39.4l7.3-11.9c-2.1-26.3,2.6-56.3,0-82.1s-5.5-7.5-7.3-12.9h40.5,0ZM538.2,519.1h-2.1v78.9h2.1v-78.9Z"/>
  <path class="st0" d="M318.3,698.1c.3,1.1,3.8,2.4,3.1,4.7h-10.4c3.7-9.7,4.2-24.3,3.2-34.8s-2.1-4.1-3.2-7.7l13,1,10.9,27c2,1.6,10.5-25.6,11.9-27,2.1-2.2,9.7-.5,13-1-.7,2.7-1.8,3.4-2.1,6.7-.7,7.1-.7,23.1,0,30.2s1,3.7,2.1,5.7h-15.6v-1.5c.4-.7,2.1-1.8,2.1-2.1v-22.3l-10.1,24.7c-.6,2.4-5.5,1.6-7.1.3-3.6-3.1-6.1-20.1-10.9-23.9,1,5.4-1.3,15.6,0,20.2v-.2ZM327.6,691.3l-9.3-23.9,4.4,13.8,4.9,10.1h0ZM349.4,695.5v-27h-1v27h1Z"/>
  <path class="st0" d="M547.6,660.2c0,1.3-3.1,3.1-3.1,3.6v15h14.5c-2.4-6.4,3-12.8-3.1-18.7h15.6c-.5,1.4-1.8,2-2.1,3.7-.5,3.1-1.5,31.9-.9,34s3.4,2.5,2.9,4.9h-15.6v-1.5c.4-.7,2.1-1.8,2.1-2.1v-16.1h-13.5v15c0,.8,2.8,2.8,2.1,4.7h-14.5c.3-2.6,1.8-3.9,2.1-6.7.8-6.5.7-22.6,0-29.2s-1.4-3.9-2.1-6.7h15.6ZM537.2,695.5v-29.1h-1v29.1h1ZM562.1,695.5v-29.1h-1v29.1h1Z"/>
  <path class="st0" d="M594,660.4c34.3-6.3,33.2,47.5,1,42.1-20.9-3.6-20-38.6-1-42.1ZM603.4,665.6c-.9-.9-3-1.4-4.3-1.3-12,1-9.3,39.6,3.3,33.5s6.6-26.8,1.1-32.2h0ZM609.8,673.7v16.6l2.1-8.8-2.1-7.8ZM584.9,691.3l-2.1-16.6c-1,5.1-1.1,8.7.3,13.7s.2,3.1,1.7,2.9h0Z"/>
  <path class="st0" d="M415.8,699.1c.2.9,3,2.2,3.1,3.6h-11.4c.2-1.4,2-2,2.6-3.1.9-1.9,1.1-30.5.5-33.7s-3.3-3-3.1-5.7l12.5.5,17.6,27.5v-23.3c0-.7-3.9-2.6-3.1-4.7h10.4c-.1,2.3-1.8,3-2.1,5.6-.8,5.5,1.5,34.8-.9,36.4s-6.2.7-7.9-.5c-5-3.6-11.9-21.5-18.1-26,1.1,6.1-1.5,18.1,0,23.3h-.1ZM417.9,672.6c.1-1.9-1.2-4.4-3.1-5.2-.1,1.9,1.2,4.4,3.1,5.2Z"/>
  <path class="st0" d="M494.7,671.6c.1-9.2-13.7-10.3-12.3-.7,1.6,4.7,19.3,6,20.7,16.7,2.3,18.9-27.8,20.1-33.3,4.7l9.3-2c-.7,10.5,15.6,10.1,14.6,1.5-.8-7.1-20.5-6.9-20.9-19.7s22.5-15.2,30.1-6.1c.4,2.4-7.4,6.2-8.2,5.6h0Z"/>
  <path class="st0" d="M396.6,660.2l3.6,10.4c-6.2-4.9-10.6-6.1-18.7-5.2v13.5l12.5-1v7.3l-12.4-2.1v14.5c3.6-.4,8.4.8,11.7-.2s3.6-5.1,7-5l-2.1,10.4h-30.1c.7-2.7,1.8-3.4,2.1-6.7.6-6.3.8-24.1,0-30.2s-2-3.3-2.1-5.6h28.5ZM374.3,696.5v-30.1c-3.9,1.2-1,6.9-1,8.8v21.3h1Z"/>
  <path class="st0" d="M649,689.5c-4.2-5.1-15.8-4.7-19.2-13.5-6.3-16.5,20.9-21.1,29.9-10.1.6,2.3-5.8,5.3-7.7,5.7-2.1-.4,0-6.4-6.4-7.2-3.6-.5-6.7.5-6.7,4.6,0,7.5,19.1,7.4,20.8,18.7,2.7,18.2-25.5,19.6-33.1,6.2l7.8-4.6c2.2,2,1.7,5.3,4.1,7.3,5.8,4.8,15.9-.7,10.6-7h0ZM637.9,679.9l-6.2-8.3c-1.3,2.4,4.6,9.8,6.2,8.3ZM648.2,685.1c-.9-2.4-3.9-3.2-6.2-3.1.6,1.8,4.6,2.8,6.2,3.1Z"/>
  <path class="st0" d="M737,660.2l3.6,10.4c-5.6-5.9-10.9-5.7-18.7-5.2v13.5l13.5-1v7.3l-13.5-2.1v14.5c3.6-.4,8.4.8,11.7-.2s3.6-5.1,7-5l-1,10.4h-31.1c-.3-2.1,1.7-2.7,2.1-4.7,1-5.3,2.1-28.7.9-33-.6-1.9-3.4-2.5-2.9-4.9h28.5,0ZM714.7,696.5v-30.1h-1v30.1h1Z"/>
  <path class="st0" d="M678.3,665.4c-5.6-1.1-8.5,2.2-12.4,5.2l2.7-10.4,29.8.2c2.6.9,3.5,7.6,3.8,10.2-4.3-2-7.1-6.4-12.4-5.2v33.7c0,.5,2.9,1.8,2.1,3.6h-15.6v-1.5c.4-.7,2.1-1.8,2.1-2.1v-33.7h0ZM682.5,695.5v-29.1h-1v29.1h1Z"/>
  <path class="st0" d="M763.4,660.2v1.5c-.4.7-2.1,1.8-2.1,2.1v33.7c3.4-.3,7.4.5,10.7-.2s4.5-4.7,8-5l-2.1,10.4h-29.1c.3-2.6,1.8-3.9,2.1-6.7.8-6.4.7-21.6,0-28.1s-1.4-4.8-2.1-7.7h14.6ZM754.1,696.5v-30.1h-1v30.1h1Z"/>
  <path class="st0" d="M455.2,676.8l3.2-7.6c-7.1-2.5-4.9-11.9,2.3-9.8,6.4,1.9,2.1,17.9-5.5,17.5h0Z"/>
  <rect class="st0" x="522.3" y="440.6" width="16.5" height="16.9"/>
  <rect class="st0" x="541.4" y="441.1" width="16.5" height="16.9"/>
  <rect class="st0" x="522" y="460.5" width="16.5" height="16.9"/>
  <rect class="st0" x="540.6" y="461" width="16.5" height="16.9"/>
</svg>