<?xml version="1.0" encoding="UTF-8"?>
<svg id="Layer_1" xmlns="http://www.w3.org/2000/svg" version="1.1" viewBox="0 0 1080 1080">
  <!-- Generator: Adobe Illustrator 29.5.1, SVG Export Plug-In . SVG Version: 2.1.0 Build 141)  -->
  <defs>
    <style>
      .st0 {
        fill: #fff;
      }
    </style>
  </defs>
  <path class="st0" d="M196,599c7,0,11.8-1.3,14.5-3.9,2.7-2.6,4.1-8,4.1-16.1v-128.3c0-8.1-1.4-13.4-4.1-16.1-2.7-2.6-7.6-3.9-14.5-3.9v-14.4h143.3l3.1,48.8h-22.8c-1.5-5.3-3-9.7-4.4-13.3-1.4-3.6-3.2-6.4-5.2-8.5-2.1-2.1-4.7-3.5-7.9-4.4-3.2-.8-7.3-1.3-12.4-1.3h-26.8v65.7h15.2c4.3,0,7.9-.3,10.9-.8,2.9-.6,5.2-1.6,6.9-3.1,1.7-1.5,2.9-3.6,3.7-6.2.7-2.6,1.3-5.9,1.7-9.9h20.3v60.6h-20.3c-.6-7.5-2.4-12.7-5.4-15.7-3-2.9-8.8-4.4-17.5-4.4h-15.5v68.5h31.9c4.5,0,8.4-.5,11.6-1.4,3.2-.9,5.9-2.6,8.2-5.1,2.3-2.4,4-5.8,5.2-10,1.2-4.2,2.1-9.6,2.7-16.2h23.4v52.7h-149.8v-13.5Z"/>
  <path class="st0" d="M509.3,450.6c0-8.1-1.4-13.4-4.1-16.1-2.7-2.6-7.6-3.9-14.5-3.9v-14.4h62.1v14.4c-7.1,0-12,1.3-14.7,3.9-2.6,2.6-3.9,8-3.9,16.1v161.9h-34.4l-68.5-105.2c-6.6-10-11.8-18.5-15.5-25.7-3.8-7.1-6.4-12.1-7.9-15h-1.1c.2,1.5.4,3.8.7,6.8.3,3,.6,6.4.8,10.2.3,3.8.5,7.7.7,11.8.2,4.1.3,8.2.3,12.1v71.4c0,8.1,1.4,13.4,4.1,16.1,2.7,2.6,7.6,3.9,14.5,3.9v13.5h-62.6v-13.5c7,0,11.8-1.3,14.5-3.9,2.7-2.6,4.1-8,4.1-16.1v-128.3c0-8.1-1.4-13.4-4.1-16.1-2.7-2.6-7.6-3.9-14.5-3.9v-14.4h69.7l57,88.3c4.3,7,8.1,13.6,11.3,20,3.2,6.4,5.6,11.7,7.3,15.8h1.4c-.2-1.5-.4-3.7-.7-6.6-.3-2.9-.6-6.1-.8-9.6-.3-3.5-.5-7.1-.7-11-.2-3.9-.3-7.6-.3-11.1v-51.3Z"/>
  <path class="st0" d="M618.8,592.5h34.4c5.5,0,10.1-.6,13.8-1.8,3.8-1.2,6.9-3.2,9.5-5.9,2.5-2.7,4.7-6.3,6.3-10.7,1.7-4.4,3.3-9.8,4.8-16.2h23.1l-3.1,54.7h-142.7v-15.8l92.5-161.1h-31.3c-4.7,0-8.7.6-11.8,1.8-3.2,1.2-5.9,3.2-8.2,5.8-2.3,2.6-4.2,6-5.8,10-1.6,4-3.1,8.8-4.4,14.2h-24l2.3-51.3h136.2v15.8l-91.7,160.5Z"/>
  <path class="st0" d="M832.9,561.8h-59.5l-6.2,22.8c-.8,2.4-1.1,4.5-1.1,6.2,0,3.4,1.4,5.5,4.2,6.2,2.8.8,7.2,1.3,13.3,1.7v13.8h-62.9v-13.8c3-.4,5.5-.8,7.6-1.4,2.1-.6,3.9-1.5,5.4-2.7,1.5-1.2,2.8-2.9,3.9-5.1,1.1-2.2,2.3-4.9,3.4-8.3l53.3-165h38.1l57.3,165c1.1,3.2,2.2,5.8,3.1,7.9.9,2.1,2.1,3.8,3.4,5.1,1.3,1.3,2.9,2.3,4.7,3,1.8.7,4,1.2,6.6,1.6v13.8h-82.6v-13.8c6.4-.4,10.8-1.1,13.1-2.1,2.3-1,3.5-2.9,3.5-5.5s-.5-3.7-1.4-6.5l-7.1-22.8ZM779.8,539.2h45.4l-15.8-49.1c-2.3-7-3.9-12.5-4.8-16.6-.9-4.1-1.6-7.5-2-10.2h-1.7c-.4,2.1-1.1,5.2-2.1,9.4-1,4.2-2.7,10.2-4.9,17.9l-14.1,48.5Z"/>
</svg>