<?xml version="1.0" encoding="UTF-8"?>
<svg id="Layer_1" xmlns="http://www.w3.org/2000/svg" version="1.1" viewBox="0 0 1080 1080">
  <!-- Generator: Adobe Illustrator 29.5.1, SVG Export Plug-In . SVG Version: 2.1.0 Build 141)  -->
  <defs>
    <style>
      .st0 {
        fill: #fff;
      }
    </style>
  </defs>
  <path class="st0" d="M472.2,286.9c18.1-1.9,34.5-10,53.1-11.7,70.1-6.5,135.1,24.9,169.1,86.8,3.4,6.1,16.9,28.8,2.9,31s-9.5-6.2-15.5-2.3c.4-6.7-6.7-13-7-18.9-.2-4.1,4.1-7.1,3.3-10.9-.4-2.1-12.3-16.5-14.9-19.6-35.6-41.3-84.4-56.5-138.3-51.9s-46.7,6.6-48,24.7c19.7.7,36.3-7.2,54.2-11.2s27.5-6.8,29.6.1c1.3,9.8-9.4,10.5-14.6,14.9-10.9,9.1-18.4,18.8-34,21.5-8.4,12.7,2.7,6.3,11.6,15.4s8.6,19.8,12.3,29.3c-6.9,2.4-6.5,8.6-8.6,11.2-3.8,4.6-11.5-1-8.5,12.4l8.7-2.5c-2,11.4,7.7,13.8,9.5,18s-1,11.6,1.6,16.6h-9.9s2.5-7.4,2.5-7.4l-12.3,2.5,7.4,8.6c-2,4.5-23.2,8.9-29.5,14.9-.9.9-12.8,19.5-13.5,21-8,16.2,2.7,22.8,18.4,22.1-3.8,16.9-14.4.4-24.3-.4,5.9-31.6-44.6-21-31.3-2,11.6,9.2,11-7.4,21.1-5.1l-1.4,10,8.8,2.4-2.4,12.3c20.7-.4,49.2-10.9,54.3,17.3l-51.8,14.8c-2.8-9.6,6.5-11.8,7.4-19.7-20.6,5.1-15.6-10.4-22.2-16-5.7-4.8-21.7-2.6-28.5-8.5-3.8-3.4-4.3-10.1-7.4-14.8-8.3-12.4-26.7-28.5-25.9-43.3.7-13.1,15.4-33.1-4.7-43.2-6.6,44.6-4.6,85.6,19.7,124.5,2.1,3.4,25.6,26.3,9.1,25.6-10.6-.5-18.4-15.2-23.5-23.5-27.9-45.7-31.4-101.2-12.8-151.2-21.2,4.3-16.3-9.2-23.5-17.2-5.9-6.7-22.1-3.8-18.4-19.7l67.4-17.7,47.6-56.2c5.5-.9,12.8,12.1,13.5,16.8ZM516.2,390.9l-7.3-3.7,9.9-12.3-7.4-8.6c-1.2,9.2-13.4,10.8-8.2,21l-3,3.6c-11.3-6.2-27.2,1.9-23,15.6s16.7,8.1,14.4,19c3.8,3.8,8-7.1,8.6-9.8,1.8-7.3,1-15.1,3.7-22.2l11,2.5,1.2-4.9Z"/>
  <path class="st0" d="M476.8,218.2c1.4,7-2.1,10.5-5.3,15.6-7.5,12-57.4,76.2-66.3,81.7-4.6,2.9-54.6,18.2-56.6,16.1-.8-3.9.4-5.7,2.4-8.7,7.3-11.4,25.3-29.8,30.9-40.7,1.7-3.3,3.7-11.2-2.4-9.9-4.3.3-6,3.7-8.5,6.3-8.6,8.8-39.5,53.3-39.5,64,0,3.4,3.1,16.8,4.7,19.4,2.1,3.3,8.9,2.8,12.3,8,2.4,3.8,1.9,9.4,4.2,13.1,5.6,9.4,16.2,17.1,18.1,28.8,1.7,10.8,1.1,22.9-11.5,25.4-18,3.5-9.6-15.2-10.5-25.5-.4-4.8-4.4-19.3-7.6-22.1-3.1-2.7-11-2.9-13.6-8.9s1.3-8.1.2-12.3c-2.1-8.1-8.2-17.7-8.9-27l-27,4.9c-.5-3.5,0-6.4,1.3-9.7,3.3-8.3,49.2-65.7,57.9-75.3s8.6-9.9,12.4-12.2c15.6-9.2,75.9-22.7,97.4-28.4,5.2-1.4,10.4-3,15.9-2.6Z"/>
  <path class="st0" d="M748.1,395.8c7.7,18.4-25.4,40.6-27.1,50.7-2.8,16.4,12.5,14.8,12.5,22.1-13.8,14.4-3.6,32.1-2.6,49.4.6,10.2-3.1,19.9-10.9,8.3s-24.1-59.1-27.4-59l-47.5,30.1-2.8,32.9-7.4,1c-1.1-.7-4.1-14.7-6.4-17.2s-7.3-1.8-8.2-2.8c-1.5-1.7.6-6.7-.8-9s-21-6.3-19.3-14c8.3-10,26.2,1.3,34.4-2.4l37.1-41.9c-1.4-5.6-56.1-29.7-59.2-42,2.1-10.5,38.1,6.1,45.7,6.3,8.9.3,14.4-6.3,23.3-5.1l.3,12.1c20,9.5,25.7-7.5,40.7-14.3,7.8-3.5,17-5.5,25.6-5.2Z"/>
  <path class="st0" d="M604.8,511.9l7.5,11.3c.7,2.3-1,3.2-2.1,4.7-4.3,5.5-43.9,24.8-52.8,28.7-48.3,20.8-136.9,46.4-182.5,11.5-28.2-21.6-29.3-60.1-10.3-88.3,8.2-.2-.5,26.8-.9,31.1-7.7,83.4,116.8,56.5,163.1,39.8,27.6-10,52.6-25.4,78-38.7Z"/>
  <path class="st0" d="M563.1,570.9c1.2,15.8-11.5,19.7-19.7,29.6,57.7,3.3,111.2-29.9,139.4-78.9s6.8-22.6,12.3-17.4c13.8,12.9-14.8,46.2-24.7,56.8-42.6,46.2-102.9,64.1-164.1,50.6-5.9-1.3-33.6-7.6-32-14.8,4.7-6.3,13.2-2.7,20.4-4.3,23.3-5.3,45.3-16,68.4-21.6Z"/>
  <path class="st0" d="M600.1,314.4l19.7,8.6c-12.5,14.7-7.4,37.6-17.7,53.8-5.3,8.3-17.2,6.2-25.4,11.6-8.4,5.5-8.5,16.2-17.2,19.7-2.7-.7-8.8-17.5-8.9-21-.3-7.5,4.1-9.7,5-14.8,2.2-12.1.7-30.2-14.3-31-1.1-1.3-.8-8.3,0-10.5.5-1.4,21.1-13.8,24.2-15.3s29.9-12.8,31.6-13.1c9-1.2,16.1,10.7,3.1,12Z"/>
  <path class="st0" d="M849.3,728.8v-87.6c0-4.6,12.3-4.6,12.3,0v108.5c0,2.2-4.9,4.2-8.2,3.3-11.9-3.2-60.4-79.6-75.7-90.9v87.6c0,4.6-12.3,4.6-12.3,0v-106.1c0-5.5,6.6-9,11.3-3.9l72.6,89Z"/>
  <path class="st0" d="M553.3,753.4v-112.2l3.7-3.7h46.9c1.5,0,19.2,8.5,21.8,10.3,26.1,17.8,28.4,63,8.7,86.8-4.6,5.6-24.3,18.9-30.5,18.9h-50.6ZM606.3,649.8c-11.1-2.3-28.7,1.7-40.7,0v91.3h38.2c6,0,21.2-11.9,24.6-17.4,10-16.2,9.2-50.9-5.5-64.1-1.5-1.4-15.4-9.6-16.6-9.8Z"/>
  <path class="st0" d="M268.4,637.5c4.1.8,14.1,8.7,17.3,12.3,20.2,22.3,9.6,44.6-13.8,58.1l24.8,41.8c-2.9,3.6-3.1,4-7.5,2.7-9.4-2.7-21.4-32.2-29.4-39.7l-34.6-1.2v38.2l-6.1,3.7c-1.2-1.5-6.2-5.4-6.2-6.2v-103.6c0-.8,3.3-3.7,2.5-6.2,15.6,2.1,38.5-2.9,53,0ZM270.8,649.8h-45.6v49.3h45.6c.6,0,10.1-5.1,10.5-5.6,7.6-9.2,1.8-40.3-10.5-43.8Z"/>
  <path class="st0" d="M679.1,649.8v35.8l3.7,3.7h49.3l3.7,3.7-3.7,6.1h-49.3l-3.3,4.1c.7,11.8-4.1,28.5,3.3,37.8h59.2c4.6,0,4.6,12.3,0,12.3h-69.1c-.4,0-4.4-3.8-4.9-5-2.4-5.1-2.5-86.9-1.3-97.4.6-5.5,1.8-9.8,6.2-13.5h66.6c4.6,0,4.6,12.3,0,12.3h-60.4Z"/>
  <path class="st0" d="M331.3,649.8v39.5h45.6c2.6,0,4.7,7,3.7,9.9h-49.3v41.9h60.4c4.6,0,4.6,12.3,0,12.3h-69.1l-3.7-3.7v-108.5l3.7-3.7h66.6c4.6,0,4.6,12.3,0,12.3h-58Z"/>
  <path class="st0" d="M126.5,711.5v38.2c0,4.6-12.3,4.6-12.3,0v-108.5l3.7-3.7h49.3c2.2,0,15.8,8.2,18.5,11.1,13,13.9,13.7,38.1,0,51.8-2.8,2.9-18.2,11.1-21,11.1h-38.2ZM126.5,699.2h45.6c7.4,0,11.8-21.7,11.2-28.4-.5-5.7-9.7-21-13.7-21h-43.2v49.3Z"/>
  <path class="st0" d="M428.2,655.5c-4.8,6-5.1,20.6.4,26.5,13.3,14.6,61.7,2.8,65.3,35.9s-61.3,43.3-85.1,20.6c-1-20.3,14.4-2.9,24.1.8,18.5,6.9,59.6,3.6,47.5-22.9-9.3-20.4-72.7-9.3-67.9-53.1,4.1-37,74.2-28.3,74.2-12.3,0,12.1-18.3-.3-25.9-1.3-8.3-1.1-27.1-1.1-32.6,5.7Z"/>
  <path class="st0" d="M846.8,797.8v65.4c0,.8-5,4.6-6.2,6.1-1.2-1.6-6.2-5.4-6.2-6.1v-81.4c0-.9,3.1-3.8,2.5-6.1l8.8,2.3,57.8,69.2v-70.3l6.1-3.7c4.5,3.1,5.6,5.6,6.3,11,1.4,10.5,1.3,69.9-1.2,77.9s-8.6,11-13.3,3.2l-54.6-67.5Z"/>
  <path class="st0" d="M252.3,869.4c.8-2.4-2.5-5.4-2.5-6.2v-83.9c0-1.3,6.2-6.4,8.8-6.2,19.3,5.3,36.7-2.8,53,11.1s23.9,53.9,3.7,73c-2.5,2.4-18.3,12.2-19.8,12.2h-43.2ZM262.2,859.5c29.9,3.5,57.7-2,56.8-38.1-.8-35.2-27.8-38.8-56.8-35.9v74Z"/>
  <path class="st0" d="M232.6,785.5h-51.8v29.6h35.8c4.6,0,4.6,12.3,0,12.3h-35.8v32.1h50.6l3.7,6.1-3.7,3.7h-56.7l-3.7-3.7v-90c16-1.3,40-5.4,55.5-2.5s6.4,5.7,6.2,12.3Z"/>
  <path class="st0" d="M769.7,773.7c30-4.4,53.6,29.2,48.8,56.3-6,34.7-45,52.7-73,28.3-28.5-24.8-13.8-79.1,24.1-84.6ZM762.2,786c-28,6.3-28.9,65.5,0,72.9,33.6,8.6,54.6-20.7,43.8-51.2-7-19.7-23.7-26.3-43.9-21.7Z"/>
  <path class="st0" d="M930.7,649.8v99.9c0,4.6-12.3,4.6-12.3,0v-99.9h-35.8c-4.6,0-4.6-12.3,0-12.3h83.9c4.6,0,4.6,12.3,0,12.3h-35.8Z"/>
  <path class="st0" d="M412.7,775.6l10.1,1.4c7.9,37.7,1.5,108.6-54.7,91.2-8.5-2.6-24.5-22-24.5-29.7v-62.9l7.5,1.1,1.9,3c2.8,20.2-4.2,48.3,4.8,66.7,11.8,24.1,54.8,13.1,54.8-7.9v-62.9Z"/>
  <path class="st0" d="M572.7,776l37.2,89.7c-13.1,13.1-15.9-23.9-23.2-25.1l-40.5,2.1c-4,2.5-6.7,28.7-17.6,24.3-4.8-4.7,31.1-76.5,33.3-88.8l10.8-2.1ZM570.5,790.4c-5.7-1-3.9.4-5.5,3.2-5.3,9.5-6.8,23.6-14.2,32.6.4,6.2,28,2,34.5,6.1l-14.8-41.9Z"/>
  <path class="st0" d="M513.8,797.8c-2.2,2.5-14.7-10.6-19.1-11.7-16.6-4.2-38.7.9-43.9,19-9.3,32.3,12.1,68.7,47.5,52.5,6.6-3,9.2-12.1,17.9-10.4,3,12.3-12.4,19.1-22,21.1-42.4,8.9-69.9-35.5-48.3-73,14.6-25.5,63.3-32.5,67.9,2.5Z"/>
  <path class="st0" d="M685.2,773.2c.3,0,4.6,4.2,5,4.9,6.6,12.6-28.9,5.4-30.9,7.4-2,22.1,2.8,48.6-.2,70.1-1.1,7.8-4.7,19.4-12.1,10.1v-80.2l-28-.4-4.1-3.3c-1.3-2.5,1.6-8.6,3.7-8.6,14.5,0,56.1-2.9,66.6,0Z"/>
  <path class="st0" d="M513.8,643.7c.1-.5,5.7-6.1,6.2-6.2l6.1,3.7v108.5c0,4.6-12.3,4.6-12.3,0v-106.1Z"/>
  <polygon class="st0" points="713.6 775.6 713.6 865.7 709.9 869.4 703.7 865.7 703.7 775.6 713.6 775.6"/>
</svg>