<?xml version="1.0" encoding="UTF-8"?>
<svg id="Layer_1" xmlns="http://www.w3.org/2000/svg" version="1.1" viewBox="0 0 1080 1080">
  <!-- Generator: Adobe Illustrator 29.5.1, SVG Export Plug-In . SVG Version: 2.1.0 Build 141)  -->
  <defs>
    <style>
      .st0 {
        fill: #fff;
      }
    </style>
  </defs>
  <path class="st0" d="M421.1,651.3l-24.6-24.5c9.7-18.8,17-39.1,19.1-60.4,11.2-112.7-98.6-199.5-205.9-161.2-92.5,33-130.9,144.4-78,227.9,45.8,72.4,142.7,93.6,214.8,46.4,9.7-6.4,18.2-14.1,26.7-22,21,21.7,43.8,41.4,66.4,61.5l-36,10c-1-.1-3.5-2.3-4.5-3.1-7.8-6.3-15.9-16-23.7-21.7-.8-.6-1.7-1.4-2.8-1.4s-15.1,9.6-17.7,11.1c-143.9,82-315.2-49.7-275.2-209.9,37.1-148.7,229.9-191.6,327.7-73,51.4,62.3,56.5,151.8,13.8,220.3Z"/>
  <path class="st0" d="M183.1,441.8c7.7-.9,13.8,1.2,19.7,6,18.7,15.2,35.5,38,54,54,2.5,2.4,7.3,2.4,10,.3l57.9-56.9c27.3-16.4,54.6,30.1,63.1,50.8,21.8,53,7.3,122.1-39.2,157.4-11.6,8.8-28.2,7.6-33-7.5-4.5-14.3,4.9-18.8,13.1-26.8,24.9-24,36.5-60.4,27.6-94.3-5.5-21-26.2-28.2-43.1-14-15.9,13.4-23.1,30.1-47.1,32-29.6,2.3-36.6-16.2-55.4-32-16.6-14-37.4-7.3-43,13.4-8.4,31.3,1,66.4,22.7,90.1,5.7,6.2,15.2,11.3,17.7,19.4,4.6,14.7-8,28.7-23,25.1-9.7-2.3-24.6-19-30.7-27-39-50.6-37.8-121.1,2.7-170.4,6.5-7.8,15.3-18.2,26-19.4Z"/>
  <path class="st0" d="M994.4,482.9v45c0,5.2-7.4,11.2-12.7,10.7h-431.1c-12.4,6.1-27.1,7.2-38.5-2.1-2.6-2.1-6.4-7.8-8.2-9s-8.6-2.3-12.3-4.2c-16.5-8.8-18.3-29.9-11.6-45.7,16.3-38.2,87-33.8,76,16.9-3.4,15.6-16.1,28.7-31.9,31.7,5.5,7.5,15.1,4.5,21.6,0,1.3.3,2.7,6.2,5.5,5.5h432.4c3.4-.4,4.1-3.8,4.5-6.6v-46.6c1.3-3.9,11.8-.4,14.7-2.5s.4-3.3,0-4.2l-52.9-46.1c-3.1-2.5-6.2-2.8-9.6-.7l-35.3,30.7,12,29.8,26.1-32.3h16.8l-37,47.2-5.6,26.4h-16.5l4.7-26.3-16.4-41.7c-2.5,1.1-1,7.4-3.2,8.2-3.5,1.2-21.1-1.3-22.6.8l-12,59.1h-16.5l11-59.8h-22.7l3.2-13.8h72.6c0,0,37.6-33.3,37.6-33.3,5.1-3.6,11.8-3.5,16.8.3,15.6,14.7,33.6,27.7,49.2,42.3,4.6,4.3,9.7,8.6,6.5,15.5-2.6,5.8-9.5,4.8-14.8,4.8ZM514.4,467.2c-24.9,3.6-32.2,51.9,5,45.6,9.4-1.6,17.4-10.5,19.6-19.6,4.5-18.6-6.1-28.6-24.6-26Z"/>
  <path class="st0" d="M474,627.2l14.4-72.9,14.1.7,18.9,44.7,35.4-45.4h14.1l-14.4,72.9h-15.8l8.2-41.6c-1-.2-2.1,1.4-2.7,2.1-8.4,9.6-15.7,21.2-24,31-2.3,1.9-5.8.6-8.6,1l-14.2-35.1-10,42.6h-15.5Z"/>
  <path class="st0" d="M687.8,627.2l15.4-72.9c25.4-.2,66.2-4.8,65.7,32-.3,19.2-17.4,40.9-37.5,40.9h-43.6ZM707.7,613.5h21c12.7,0,22.7-14.7,23-26.5.6-21-21.1-18.6-35.7-18.2l-8.3,44.7Z"/>
  <path class="st0" d="M592.9,453.3l-8.8,47.1c.5,7.6,4,12.2,11.9,12.7,14.4,1,18.2-7,21.3-19.3,3.4-13.3,5.1-27.2,7.9-40.6h16.5c-2.8,14.1-4.6,28.6-8,42.5s-12.6,29.8-30.9,31.7c-23.1,2.3-38.7-7.8-35.1-32.4,1.9-13.3,6-26.8,8-40.1l1-1.7h16.2Z"/>
  <path class="st0" d="M714.6,526.9h-16.2l-4.2-15.8h-33.5c0,.1-10.4,15.8-10.4,15.8h-16.8c0-1.5,1.1-2.8,1.8-4.1,13.2-23,30.7-44.9,44-68.1l1.5-1.3,16.4.5,17.5,72.9ZM691.2,498l-5.5-27.5-17.2,27.5h22.7Z"/>
  <path class="st0" d="M564.1,627.2l46.4-71.5c3-2.9,12.3-.6,16.6-1.4l18.9,72.9h-17.2l-2.8-15.1c-10.2.8-21.9-1-32,0-1.4.1-2-.1-3.1,1-2.7,2.8-5.9,10.5-8.2,14.1h-18.6ZM622.5,599l-5.5-27.5-17.2,27.5h22.7Z"/>
  <path class="st0" d="M838.3,559.2l-6.6,13c-8.1-4.5-18.6-7.1-27.6-4.3-6.2,1.9-11.2,8.3-4.4,13,10,6.9,31.9,3.8,33.1,21.9,1.7,26.5-34.8,29-53.1,22.8-2.7-.9-10.1-3.2-9.2-6.7s5.7-10.8,6.3-11c8.3,5.7,27.4,10.5,35.9,4.3,7.7-5.6.9-10.4-5-12.6-9.4-3.5-26.4-5.7-27.9-18.2-3.5-30.7,38.8-33.3,58.4-22.3Z"/>
  <polygon class="st0" points="753.8 453.3 742.1 512.4 778.5 512.4 775.8 526.9 723.2 526.9 737.6 453.3 753.8 453.3"/>
  <polygon class="st0" points="785.4 526.9 799.8 453.3 816 453.3 801.5 526.9 785.4 526.9"/>
  <polygon class="st0" points="685 554.4 670.6 627.2 653.4 627.2 667.9 554.4 685 554.4"/>
</svg>