<?xml version="1.0" encoding="UTF-8"?>
<svg id="Layer_1" xmlns="http://www.w3.org/2000/svg" version="1.1" viewBox="0 0 1080 1080">
  <!-- Generator: Adobe Illustrator 29.5.1, SVG Export Plug-In . SVG Version: 2.1.0 Build 141)  -->
  <defs>
    <style>
      .st0 {
        fill: #fff;
      }
    </style>
  </defs>
  <polygon points="-.3 1084.7 -1 1084.7 -1 .7 1083 .7 1083 1.4 -.3 1.4 -.3 1084.7"/>
  <path class="st0" d="M414.2,495.4c.2,1.2-1.7,2.1-2.6,2.8-2.9,2.4-12.5,8.1-13.9,10.5-2,3.5,2,9.9.3,13.9-4,2.5-11.6,12.3-16.2,11.7l-13.5-5.3h-2.6s-29.9,18.9-29.9,18.9c-1.7,1.6-1.9,4.9-3.2,6.5s-11.9,9.4-12.9,9.8c-3.8,1.6-5.6-1.4-8-1.3s-9.8,4-8.3,6.2c3.7,1.2,7.6,3.1,10.7,5.5.5,2.9,1.4,6.1,1.7,9s1,8.6.4,10.5-11.5,10.9-12.6,11.2-3,0-4.4-.4-12.2-5-13.3-6c-3.5-2.9-3.4-13.4-5.6-17-1.3-2.1-7.5,1.2-7.8,3.4-.6,3.7,4.5,11.3,3.6,15s-8.6,8.8-10.6,11.6c-.6.4-1.2.3-1.8.2-4.3-.7-10.5-5-15-6-3.6-1.7-2.5-7.3-7.1-6.8s-3,.9-3.3,1.4c-1.6,2.5.8,4.2.9,5.6s-6.3,11.4-7.7,11.9-3.3-.3-4-.5c-5.8-1.7-11.1-6.3-17.4-4.9s-15.3,5.7-22.5,8.1c-3.4,1.4,1.3,8.1-1.3,9s-6.3-5.6-9-5.4-1.3.8-2.2.8c-13.8.3-27.2,4.4-41.5,3.5-28-1.7-34.1-21.6-20-43.9,7.8-12.4,19.9-20.3,31-29.2-.8-2.9-2.5-5.5-3.2-8.6s-2.9-17.5-2.4-21.4,1.3-7,1.8-9c1.6-6.5,7.8,4,8.8,6.2.1,10.1,4.5,20.9,1.6,30.8s-3.8,3.5-6,4.8c-6.2,4-18,15-22.7,21-25.8,32.9,9.7,38.4,35.9,33,2.6-.5,7.5-3.3,6.6-6.3s-1.2-1.1-1.5-2c-.5-1.4-1.4-8.2.2-8.7s9.3,5.4,10.3,6.4c2.4,2.6.9,5.2,6,4.2s15.6-5.1,19.8-6.8,2.7-1.6,4.2-2.1l.7-1c-1.4-3.1,5.8-14.8,7.9-15.4,4-1.2,12.2,5,16.5,5.4s11.4-3.6,13.7-5.3c3.4-2.4,6-8.2,10.6-7.7s1.9,1,2.9,1.2c4.6.8,33.1-16.1,39.6-18.2,4.4-2.6.9-7.9.4-11.6s-1-8.3-.2-10.3,2.4-2.7,3.3-3.5c1.5-1.3,11.2-9.1,12.2-9.4s1.7-.3,2.9,0c2.8.7,16.8,7.2,17.9,9.4s-.3,6.7,5.3,4.6c6.5-4.7,14.9-7.2,21.6-11.4s2.1-1.4,2.5-2.1c2-3.5-3.4-13.6-2.2-17.5s5.9-6.2,7-7.2c1.6-1.5,6.9-6.5,8.6-6.6s14.3,5.2,16.6,6.4c3.9,2.1,3.6,3.1,6,6.4,4.6-2,9.8-6.1,14.2-7.9s1.5-.8,2.6-.5Z"/>
  <path class="st0" d="M604.4,495.6c.7-2.3,8.2.7,9.8,1.6,5,2.5,9.1,6.9,13.2,10.5,7.3-6.1,16.3-13.6,26.2-14.5,11-1.1,20,.2,28,8.1s1,3.6,3.7,3.5,8.3-6.4,10.3-7.6c12.7-7.3,35.5-5.8,45.6,5.9,13.8,15.9,4.8,54.1,7.4,74.4-.2,1.9-.9,3.9-2.7,4.7-4.7-.3-23.3,2.7-25.7-1.4s-.5-1.8-.6-2.7c-1.4-16.2,1.9-35-.7-51-2.3-14.3-23.2-14-27-.6-.8,2.9-1.2,9.1-1.3,12.3-.6,12.4,1.4,27.2,0,39.2s-.8,3.2-1.5,3.7c-2.3,1.5-17.4,1.4-20.9,1.1s-6.1-1.3-6.5-6c-1.4-14.6,2.1-33.6-.1-47.6s-4.9-12.9-12.6-12.9c-11.5,0-15,9.8-15.6,19.6-.9,14.4.9,29.5-.3,44-.8.9-1.6,2-2.8,2.3-4.7.9-15,1-19.9.6s-5.9-1.5-5.9-3.7v-83.5Z"/>
  <path class="st0" d="M942,504.7c9.9,8.7,14.7,23.3,13.3,36.4-.3,3-1.9,3.5-4.8,3.7-18.4,1.7-40.5-2.1-58.5,0s-2.6,5.7-1.1,9.1c4.9,11.6,21.5,14.1,30.1,5.7s3.5-6.6,6.4-7.3c3.4-.8,18.1-.5,22-.1,6.3.6,3.4,5.7,1.6,9.6-12.5,26.5-52,29.9-74.5,15.1-16.2-10.7-21.7-31.3-17.5-49.7,8.1-34.9,57.8-44.7,83.1-22.4ZM890,528.2c1.2.3,2.4.6,3.6.7,6.9.5,20.6.8,27.3,0s0-10.6-3.2-12.7c-10.5-7.5-27.9-1.8-27.7,12.1Z"/>
  <path class="st0" d="M580.9,574.6c-17.3,17.1-63.4,14.1-77.2-7.2-2-3.1-8-15-2.6-16.7s18.6-.6,21.9-.3c5.8.5,4.2,3.6,6.8,7.4,4.9,7.1,22.4,10,28,3.6s-2-11.1-7.7-12.6c-14.7-3.8-43.9-2.7-47.6-22.8-7.2-39.7,65.9-43.5,80.1-14.8,1.8,3.6,4.6,9.6-1.3,10.7-3.2.6-19.8.5-22.4-.6s-4-5.5-6.7-7.5c-4.1-2.9-16.2-4.2-19.2,0-4.7,6.7,6.4,9.7,11.1,10.8,12.7,3.1,29.5,3,39,13.2,9.3,10.1,7.2,27.4-2.2,36.7Z"/>
  <path class="st0" d="M814.8,437c9.9-.3,20.3,9,24.3,17.6,2.1,4.6,2.4,9,3.7,13.9l-.4,111.3c-1.1,2.3-3.3,2.6-5.6,2.9-4.1.5-15.1.6-19-.2-3.3-.6-3.7-2.1-4.5-5.2v-136.2c0,0,1.4-4.2,1.4-4.2Z"/>
  <path class="st0" d="M518.7,451.6c1.3.9,5.2-2.8,7.9.3s-5.9,7.6-6.7,10.3c-1.3,4.3,2.1,17.8-1.1,19.9s-1.4.6-1.6.5c-1.7-.3-9.1-22.3-10.6-25.6-1.2-2.7-7-14.5-9.8-14.5l-25,16.5c-1.3,4.1,1.2,18.1-1.4,20.7-4.4,4.3-4.7-7.4-7.6-8.7l-16.9,12.3-16.5-7.9c-3.2-2-3.1-4.8-3.7-8.2-.9-5.4-1.5-11.8-1.5-17.3.2-.7.7-1.2,1.2-1.7,1.5-1.6,7.4-6.2,9.4-7.6s4.1-3,5.4-3c2.1,0,15.8,7.6,18.3,9.3s3.5,4.3,7.4,3.4,9.5-7.7,11.9-9.7,10.8-7.2,11.2-7.8c1.8-3.1-6.8-11.2-9-13.2-6.8-6.3-14.9-11.6-21.6-18.1l-.3-2.6c2-2.8,15.8,5,19.4,5s6.1-5.1,10.6-3.7-.8,6.3,0,8.6c6.4,7.8,12.4-4.3,18.4,1,1.3,2.4-1.4,4.1-2.4,6,2.8,3.6,4.6,2.6,7.9.6,6.9-4.2,17.9-15.2,25.8-16.2,11.1-1.4.1,9.7-2.9,12.4s-17.8,12.9-18.8,15.9,0,3.4.9,4.9c1.1.7,6.9-2.2,7.4,1.7.6,4.3-5.6,5.8-6.6,8.7s.4,5.4.9,7.9Z"/>
  <path class="st0" d="M767.7,494.9c4-1.4,14.9,5.9,17.8,8.7,11.6,11.3,9.6,25.1,9.6,39.7,0,10.8,1,24.2,0,34.7s0,1.5-.5,2.4c-1.4,3.3-7.4,1.8-10,1.8s-14.2.7-16.4-.6-1.9-4.5-2.1-6.4c-1.7-24.6,1.4-51.3,0-76.1,0-1.2.3-3.8,1.5-4.2Z"/>
  <path class="st0" d="M276.7,357.8c0,.2-2.8,3.4-3.3,3.8-1.1.9-6.6,4-7.8,4.2s-6.2-2.3-5.8-4.5c-2.9,0-3.9,2.8-6.2,3.4,3.6,3.8,8.1,1.5,6.6,8.5s-2.2,7.2-3.4,8.5-8.4,5.8-9.6,6.3c-4.4,2.1-8.3,0-10.3-4.1,2.9-6,5.9-12.1,12.2-15.1.1-2.1-2.5,0-3.3.2-3.3.5-5.4-5.9-9.7-.2,1.7,1.6,2.1,3.9,1.5,6.1s-5.2,8.6-5.9,9.5c-1.3,1.7-11.9,9.2-13.7,9.6-4.6,1-6-3.8-4.1-7.4s2.7-1.2.3-1.5c-2.7,2-4.8,4.6-7.4,6.8s-6.8,4.5-9.9,7.1h-1.7s-1.7-2.9-1.7-2.9c-1.8-1.3-6.7,3-6.8,5.2s1.1,2.9,1.1,4.5-7.4,15.2-9.1,17.6c-2.8,4-6.9,7.2-10.6,10.5-2.6-.5-2.3-3.5-3.9-5.1l-4.9,5.5c.9,3.2,2.3,4.6,1.7,8.4-1.1,6.8-6.9,22.6-11.1,28.1s-3.7,4.4-4.2-.2,4.2-17.3,6.5-22.4,3.5-5.2,4.4-7.5.8-4.7,1.6-6.8c1.5-3.8,14.3-21.8,17.6-24s4.6-1.6,6-3.3,1.5-4.8,2.4-6.4c2.4-4.1,16.5-16.6,20.9-18.8s6.5-2.1,9.4-4.2,2.5-3.3,4.7-3.8c1.6-.2,1.4,2,1.2,2.9s-2.1,2.8-.2,2.7l6-4.4c.8-3.2-1.9-3.1-2.3-3.6-.9-1.3,3.6-4.1,4.7-4.6,7.4-3.8,23-9.9,30.8-11.2s3.5.8,5.5.4c3.6-.6,8-4.7,11.5-1.6.5.8.5,3,.1,3.8Z"/>
  <path class="st0" d="M281.8,483c.8-.2,1.3,0,2,0,1.7.2,17.8,7.2,18.6,8.1s2.5,12.7,2.8,14.8.8,8.4-.2,9.9l-14.5,12.2c-2.3,1.9-5.7-.4-8.2-1.4-2.4-1-11.3-4.7-12.8-5.9-2.3-1.9-1.3-3.9-1.8-6.1-1.3-5.7-1.9-10.8-2.5-16.5l1-2.3c3.4-1.9,12.6-12.1,15.7-12.8Z"/>
  <path class="st0" d="M252.2,528.1c-1.9,1.8-6.4,6-8.3,7.3s-1.5,1-2.5.9l-17.4-8.3c-1-1.6-3.3-16.6-3.4-19.2s0-4.2,1.1-5.7,6.3-5.9,8-7.4,5.5-4.9,6.8-5.2,17.4,6.7,18.3,8.4c2.6,4.9,1.7,16,3.3,21.7-.9,3.2-3.6,5.3-5.9,7.5Z"/>
  <path class="st0" d="M300.5,441c1-.2,1.5,0,2.4.2,1.9.5,16.5,6.3,17.3,7.1s1.4,3.1,1.8,4.5c.9,3.5,2.2,10.4,2.5,14s.2,1.8,0,2.6c-.5,1-1.4,1.7-2.2,2.4-2.2,2.2-9.9,8-12.5,9.6s-2,1.4-3.1,1.5-8.1-2.9-9.9-3.7-8.8-3.5-9.8-5.5c-1.4-3.1-.7-7.1-1-10.3s-2.3-7.3-.8-10.5,14.1-11.6,15.4-11.8Z"/>
  <path class="st0" d="M369.7,466.2c-1.1,1.2-9.6,8-11.2,9-3.1,1.9-3.9,1.6-7.3.6s-15.3-6.6-16.2-7.7-1.1-2.5-1.3-3.3c-.8-3-2.3-11-2.4-14s-.3-2.9.3-4.2,12.6-10.6,14.2-10.8,16,5.2,18.2,6.7c3.6,2.3,5.5,11.1,6.3,15.3s1.6,6-.6,8.4Z"/>
  <path class="st0" d="M221,536.3c.8-.1,4.9,1.7,6.1,2.2,2.4.9,9.6,3.9,11.3,5.2s2.1,4.2,2.9,6.1l3.4,15.9c-.4,1.5-10.2,12.5-11.5,12.9s-3.4.2-4.7-.1-12.2-5.1-13-5.7c-1.9-1.5-7.9-20.5-7.3-22.5,2.5-2.5,9.8-13.5,12.8-14Z"/>
  <path class="st0" d="M776.3,447.3c8.3-.9,20.1,2.4,23.7,10.6,5.6,12.9-8.6,21-19.9,21.2-27,.5-29.8-29-3.8-31.9Z"/>
  <path class="st0" d="M195.5,498.9c1.7-.4,5.2,1.5,7.1,2.3s8.4,4.3,9,5.2c1.7,5.5,1.5,11.4,2.3,17s1.5,2.7,1.1,5.7-9.5,10.8-11.4,14.2c-1.6,1.5-4,.4-5.8-.4s-9.7-5-11-6.1c-1.9-1.7-2-4.8-2.5-7.2s-1.6-9.3-1.8-12.4-.1-3.5.5-5.1,10.2-12.8,12.4-13.2Z"/>
  <path class="st0" d="M401,545.4c1-.1,1.4-.1,2.4.1,1.7.4,12.8,5.9,14.1,7s.8.5,1.2,1.1c1.2,2,1.1,19.1-.2,21.1s-8.7,6.6-10.1,7.5-4.3,3.2-5.8,3.2-14.3-6.5-15.3-7.9-1.2-3-1.4-4.3c-.5-3.3-1.2-10.5-1.1-13.6s.9-3.2,1.9-4.2,11.2-8.8,12.3-9.3,1.3-.7,2.1-.8Z"/>
  <path class="st0" d="M230.1,461.5c.6.7.6,1.5.7,2.4.4,4.1,1,13.1.6,17.1s-.4,3.6-2,4.8c-3.5,1.8-10.5,10.8-13.7,11.3s-2.1,0-3.1-.2-10-4.9-11.3-5.8-2.1-1.7-2.4-3.3c-.8-6.1,1.3-13.8,1.5-20,3.7-2.8,6.5-6.7,10.1-9.6s3.4-3.3,6.2-3,12.4,5.4,13.2,6.4Z"/>
  <path class="st0" d="M436,540.4c.7-.6,2.4-1.2,3.4-2,2.6-2,9.2-7.8,12.2-8.1s13.6,6.5,14.7,8.6.7,1.8.7,2.7c-1.5,4.7-.8,14-2.9,18.1s-1.5,1.8-2.2,2.3c-1.7,1.4-12.7,8.6-14,8.7-3-1.5-13.1-6.1-14.1-9s.2-4.1.3-6.5c0-3.6-.8-12.4,1.9-14.9Z"/>
  <path class="st0" d="M426.6,347.8c1-.2,9.8,2.9,11.5,3.6s5.5,2.1,6.2,2.9c1.6,1.5,2.5,6.7,3.1,8.8.7,2.6,2.1,5.3,2.1,8.2,0,4.2-8.8,7.6-11.4,10.7-3,1.8-4.2,1.5-7.3.6s-12.4-4.5-13.9-5.4-2.7-6.2-3.1-7.7,0-2.9-.2-4.3c-.7-4.9-2.8-6,1.8-9.7s10.4-7.5,11.2-7.6Z"/>
  <path class="st0" d="M275.5,410.9c2.1-.4,5.9,1.1,8.1,1.9,4.3,1.5,8.2,2.3,9.4,7.1s2,11.2,2,13.4-4.4,4.8-6.5,6.5c-4.2,3.3-7.4,7.9-13.3,6.4s-13-5.3-14-6.4-.7-1.2-.8-2c-.4-2.3-.3-14.2.4-16s12.7-10.4,14.8-10.8Z"/>
  <path class="st0" d="M353.9,401.2c3-.7,18.1,5.1,20,7.6s6.8,12.6,7.2,14.4c.7,3-1.4,4.5-3.6,6.4s-7.1,5.7-7.7,6c-1.9.7-3.7,0-5.6-.6-3.2-1-11-4.3-14-5.8s-1.5-1-2-2c-1.1-2.2-2.9-8-3.7-10.5s-1.6-4.5-1.3-6.1,9.1-9,10.6-9.3Z"/>
  <path class="st0" d="M184.1,544.8c1.3-.2,12.8,5.3,14.3,6.5,3,2.3,3.1,6.9,4.2,10s3.9,9.9,3.7,12.5-7,12.4-8.8,12.9-13.6-5-15.2-6.8c-2.6-3-7.9-19.5-6.9-23.3s5.3-9.1,6.3-10.2,1.4-1.5,2.4-1.6Z"/>
  <path class="st0" d="M238.1,416.6c1.8-.2,12.7,4.5,13.5,6.2s.6,15.4.3,17.3c-.6,4-12.4,10-15.3,13.6-.6.4-1.3.4-1.9.4-1.3,0-11.8-4.8-13-5.8s-1-.8-1.3-1.6c0-6.1.7-12.4,2.1-18.4,2.8-2.4,12.7-11.2,15.7-11.6Z"/>
  <path class="st0" d="M179.6,463.1c1.4-.4,2.7-.1,4,.3s8.5,5.5,8.7,6.6c.5,2.7-.5,5.4-.6,7.9-.1,3.7.7,11.2-.7,14.1s-5.3,6.6-6.4,7.8c-1.8,2-4.1,4.4-6.3,5.7-1.6.1-10.7-6-11.3-7.4-.3-4.8-.6-10.3-.3-15.1s1.4-8,5.1-12.5,7.1-7.3,7.8-7.5Z"/>
  <path class="st0" d="M163.1,506.8c1.4-.4,11.2,6.6,12,8.2.6,4.7,1.7,9.5,2.3,14.2s1,7.8.4,9.9-6.5,10.5-7.4,11.3c-2,1.7-2.9.7-4.7-.3-3.8-2.1-8.3-5-9.4-9.3s-2.9-17.2-1.7-21,7-12.6,8.6-13Z"/>
  <path class="st0" d="M338,625.8l-9,7.2c-1.8,1-3.6,1.2-5.6.6s-9.2-3.9-9.8-4.3-2.2-2.8-2.5-3.7c-.7-2.6-2.3-9.9-2.4-12.4-.1-3.6,2.9-5.4,5.4-7.6s6.9-5.6,7.4-5.7c1.2-.2,2.5,0,3.7.3s12.5,5.9,13.1,6.8c.9,1.6.9,17.5-.2,18.9Z"/>
  <path class="st0" d="M362.4,594.8c.5,0,.9,0,1.4,0,.9.2,11.2,6.3,11.8,7,2,2.5-.4,7.1-1,9.8s-.3,3.9-.9,5.9c-1.7,6.3-8.5,8-13,11.9-2.7,2.3-12.7-4-13.7-5.8-1.5-2.6-.3-4.7-.3-7s-.6-8.4.6-10.7,13.2-10.7,15.1-11.1Z"/>
  <path class="st0" d="M186.2,455.5c-2.1-2.6,2.2-19.2,4.4-21.7s10.3-8.8,12.2-9.9,1.2-.8,1.9-.9c4,1.7,10.5,4.1,10.3,9.1s-1.8,12.4-2.4,14.6-1.3,2.8-2.4,3.9c-2.8,1.3-11,10.4-13.1,10.8s-9.8-4.5-10.9-5.8Z"/>
  <path class="st0" d="M300.3,633.5c-2.9,3.2-3.7,6.3-8.6,5.1s-12.1-4.2-14-7-5.6-11.2-5.9-12.3-.4-3.2.1-4.1,5-4.4,6-5.4c2.4-2.4,2.4-5.2,6.8-4s12.3,4.8,13.6,5.7,2.3,2.4,2.7,3.6c.8,2.1,2.9,10.3,3,12.3.2,4.3-1.8,3.9-3.8,6.1Z"/>
  <path class="st0" d="M290.9,380.8c2.2-.5,13.2,3.2,14.9,4.7s4.4,13,3.9,14.6c-3.8,3.9-8.4,7.4-13.3,10.1-1.6.2-13.1-4.1-14.6-5.2-3.7-2.7-2.7-11.6-2.3-15.8.4-.9,10.5-8.2,11.5-8.4Z"/>
  <path class="st0" d="M144,503.9c-3.4-.1-3.4,9.2-4,9.6l-2.3-.2c-1.9-1.3.7-19.3,1.3-22.6s1.9-9.5,3-9.5c3.3,2.6,1,5.3.9,8.2s-.2,5.2,0,7.4-.1,2.2,1.2,2.5c.7-5.5.7-11.2,2.6-16.5s5.5-11.7,7.6-12.3c3-.8,6.4,4.4,7.4,6.9,0,13.3.3,22.4-8.2,33.1s-8.2-3.3-9.3-6.8Z"/>
  <path class="st0" d="M371.5,358.6c1.1-.2,2.2.2,3.2.5,2.4.6,11.9,3.6,13.4,4.8s7.3,11.4,7.4,13.1-8.1,8.7-10.4,9.4-7.2-1.8-10-2.8-6.3-1.2-8.3-3-5-12.2-4.6-14.2,7.8-7.6,9.3-7.8Z"/>
  <path class="st0" d="M271,406.7c-3.7,1.3-11.4,9.2-14.9,9.2s-10.6-4.1-11.8-5-1-2.1-1-3.2c0-3.1,2.2-12.4,4.4-14.4s7.8-5.5,9.5-6.4c4.6-2.4,10.5.8,14.2,3.7.8,1.7.7,15-.3,16.2Z"/>
  <path class="st0" d="M161.8,587.7c-2.2-2.4-8.9-19-9.2-22.4s2.5-11.6,4.2-12,10.2,5.3,11.2,6.8c3.1,4.5,4.6,15,7.6,20.2.6,3.6-1.7,10.2-3.9,13.1-1.7.8-8.8-4.3-10-5.6Z"/>
  <path class="st0" d="M260.9,672.4c-3.7,2.1-4.9-.5-7.4-1.3s-7.2-1.7-6.7.5c.5.8,2,1.5,2.2,2.4.8,3-2.9.8-4.2.8s-3,.8-5,.5c-3.3-.6-18.3-8.3-20.5-10.7s-3.3-7.6-.1-7.3c2.2.2,12.5,4.9,12.9,4.4-1-3.4-3.7-5.6-2.8-9.7,1.5-1.5,13.4,2.9,15.5,4.1s14.5,10.9,15.4,12.4,1.3,3.2.8,3.9Z"/>
  <path class="st0" d="M214.7,633.5c-1.2-1.5-3.2-2.5-3.2-5s2.2-8,3.4-8.5,2.7-.3,4,0c2.1.4,10.4,3.3,12.1,4.4,3.7,2.4,8.5,12.3,12.2,15.7.7,2.4-.7,11.3-4.7,9.8-3.7-1.8-8.2-2.2-11.9-4-3.9-2-9.2-8.6-11.9-12.2Z"/>
  <path class="st0" d="M192.8,626.8c.4-1.5,3.2,0,4.3.3,10,3.5,10.5,5.1,17,12.5,2.7,3,6.2,5.1,7.4,9.1,3.3,11.3-8.7,1.6-13.9,1.7l3.4,6.8c-6.9-2.2-13.3-7.6-18.5-12.5-2.3-2.2-7.7-7.4-8.5-10.3s-.1-2.8.8-2.8c1,2.7,5.2,3,7.2,5.1l1.3-.8c0-.2-.5-.4-.5-.6,0-2-.4-7.1,0-8.5ZM202.1,644.4c-1-.9-3.3-4.1-3.1-.3,2.6-.5,3.9,5.5,6.8,3.1-1.8-.4-2.4-1.6-3.7-2.8Z"/>
  <path class="st0" d="M230.1,391c1.5-.3,8.8,3.2,9.2,4.2s.1,1.5,0,2.2c-.3,2.4-2.6,10.6-3.5,13s-13.5,11.5-15.5,11.8c-3,.4-10.5-4-9.6-7.9s4.8-12.5,6.3-14.1,11.7-8.7,13.1-9Z"/>
  <path class="st0" d="M169.2,437.1c1.4-1.5,4.2-4.3,5.7-5.7s1.9-1.5,2.8-1.8c1.8.1,6.5,5.9,6.1,8.1-2.7,5.4-2.7,13.9-5.6,18.9s-8.3,9.3-9.8,10.6-2.4,2-4.2.9-4.2-4.5-4.5-5.2c-.5-1.3-.5-3.9-.3-5.3.8-5.3,6.2-16.7,9.8-20.6Z"/>
  <path class="st0" d="M205.2,397.3c2-.5,3.8.8,4.4,2.7,1.3,4.1-4.5,12.7-5.8,17-2.8,2.4-11.5,11.2-14.8,11.3s-5.2-4.3-5.3-5.9,2.1-4.8,2.6-5.8c3-5.8,7.5-12.3,13-16s5.5-3.2,5.8-3.3Z"/>
  <path class="st0" d="M298.3,360.4c3.5-.6,10.3.3,13.2,2.4s5.4,7.6,5.6,9.2-7.1,7.9-9.3,8.1-12.2-3.4-13.6-4.5-3.1-7.9-2.9-9.1c.4-2.4,4.8-5.7,7-6.1Z"/>
  <path class="st0" d="M277.3,668.4c-1.3,1.3-10.8-1.3-12.7-2s-14.6-10-15.2-11.5c-.9-2-.2-8,2.3-8.5s2.3,0,3.3.1c1.9.4,10.2,3.2,11.7,4.1s11.2,11.6,11.5,12.3c.6,1.4.1,4.4-.8,5.4Z"/>
  <path class="st0" d="M275.6,363.2c2.1-.5,8.1,1.1,9.5,2.7s2.7,9.5.8,11.6-9.2,6.6-11,6.6-9.8-2.5-10.4-4.4,1-8.7,2.1-10.7,7-5.3,9-5.8Z"/>
  <path class="st0" d="M321,357.5c1.4-.3,7.3,1,9,1.5,6.5,1.9,11.9,6,15.8,11.4-1.5,5-5,6.5-10.1,5.6s-9.9-2.8-10.9-3.3-8.1-8.8-8.2-9.4c-.5-1.8,2.7-5.3,4.3-5.7Z"/>
  <path class="st0" d="M631.6,622.8c0-.6.9-2.3,1.5-2.5,4.4-.2,11.4-.9,13.8,3.7,1.6,3.2-.6,4.7-.5,7.3s1.9,3.1,1.6,5.6c-.2,1.6-2.5,5.5-4.2,5.5h-11.4l-.9-.9c.7-5.7-.9-13.3,0-18.7ZM638.3,624.9c-.7.2-1.2.8-1.5,1.4l.2,1.9c5.2,4.4,7.9-5.3,1.3-3.3ZM642.3,637.7c1.6-2.6.5-4.3-2.4-4.4-6.1-.3-2.9,7.8,2.4,4.4Z"/>
  <path class="st0" d="M563.9,631.7c2.6,2.6-2.5,9.2-5.5,10.4-5.6,2.2-12.2.8-15.2-4.7-2.2-4-2.3-6.2-.4-10.3,4.4-9.8,16.1-9,21.2-.3-3.4,4.2-5.6-1.2-8.9-1.9-14.3-3-9.2,21.8,3.8,10.9,0-1.5-5.7.1-5.7-2.8s9.6-2.4,10.7-1.3Z"/>
  <path class="st0" d="M606.5,620.4c9.2-1.6,15.6,4.4,14.3,13.7-.9,6.4-6.7,9.2-12.7,8.9-13.4-.7-13.8-20.5-1.5-22.6ZM607.1,624.9c-4.9,1.1-6.1,7.5-3.2,11.4s10.3,2.8,11.6-1.3c2-6.4-1.5-11.7-8.4-10.1Z"/>
  <path class="st0" d="M751.4,622.8c1-4.6,14.8-3.3,16.7,2.6,1.7,5.4-2.5,6.6-2.9,8.8s2.7,5.2,3.1,6.4c.7,2.3-4,2.2-4.8,1.6s-2.3-7-5.5-6.8-.7,5-1.5,6.2c-1.6.6-3.8,1.3-5-.2.8-5.3-1.1-13.8,0-18.7ZM758.1,624.9c-2.5.7-2.5,6,2.1,5.6,5.6-.6,2.9-7-2.1-5.6Z"/>
  <path class="st0" d="M663.6,639.2c-1.7,1.4-1.8,5.6-6.4,2.4l7.3-18.3c1.2-1.8,1.6-3.7,4.2-2.9s8.2,17.5,10,21.1c-4.5,3.3-4.7-.9-6.2-2.2s-7.5-1.3-8.9-.1ZM669.6,633.2c.3-1.8.1-3.8-1.3-5-1.7,1.3-3.4,3.8-1.6,5.7l3-.7Z"/>
  <path class="st0" d="M790.5,621c.7.7,7,16.3,7.5,18.3s.2,4-3,3-1.5-2.4-3.1-3.2-6.1-1.1-7.8,0-1.5,4.9-6,3.1c-.8-.4.1-2.5.3-3.1,1.3-3.8,4.6-12.5,6.4-15.7s3.5-4.3,5.7-2.3ZM788,628.8l-2,3.1c.6,2.6,3.4,2.6,3.8,0l-1.9-3.2Z"/>
  <path class="st0" d="M895.5,634c-1.1-.8-3.5-.8-5.1-1.4-9.3-3.8-3.7-15.1,6.3-12,2.4.7,6.2,5.4,3.1,6.4s-7.3-5.4-9.2-.3c.5,3,9.9,2.1,11.2,7.6,2.4,10.6-16.2,12.1-16.1,1.8,3.5-2.5,4.6,1.8,5.8,2.2s5.1.3,5.2-2c-.1-.6-.7-1.9-1.2-2.3Z"/>
  <path class="st0" d="M251.3,677.6h5.1c-3.3-3.2-.7-4.4,3-3.8,8.8,3.7,18.8,6,27.4,10.1.7.3,1.6.2,1.5,1.4-.3,1.3-4.7,2-6,2-5.6,0-20.4-3.8-25.9-5.8s-4.2-1.7-4.4-1.8c-.8-.6-.6-1.1-.6-2Z"/>
  <path class="st0" d="M337.4,640.9c1.7,0,7.9,3.7,8.2,5.2.7,3.7-1.9,11.3-5.4,13.4s-6.2-.5-7.7-2.6-3.1-7.8-2.6-9.4,5.7-6.5,7.5-6.6Z"/>
  <path class="st0" d="M838.3,623.9c.1-.7,1.3-3.4,2.1-3.6,1.6-.5,12.2-1,11.3,2.5-1.5,3-5,1.4-7.3,2.1s-1.8,3.3-.4,4.2,8.2-.9,6.6,3.7l-6.6.8c-1.4.8-1.4,4.6-.2,4.9l8.1.6-.8,3.4h-11.9l-.9-.9c.6-5.4-.8-12.5,0-17.6Z"/>
  <path class="st0" d="M817.3,634.4c1,.9,2.1-2.4,2.4-3,1.7-3.9,2.2-12.3,7.8-10.6.9,1-5.9,17.6-6.6,20.2-3.7,3.3-5.7,1-7.2-2.7s-5-12.2-5.7-15.3.7-3.6,3.1-2.6c2.3,1,4.8,11.2,6.3,13.9Z"/>
  <path class="st0" d="M295.4,658.4c2.3-.8,10.6,2,12.9,3.4s7.2,6.1,8,7.3c1.3,1.8,2.5,3.1-.5,3.4-5.1.6-13.7-3.6-18.1-6.4-3.1-2-5.7-4.3-2.3-7.7Z"/>
  <path class="st0" d="M145.1,563.5c4.9,2.9,5.3,8.2,7.4,12.8,3,6.8,6.2,11.8,6.6,19.6s.5,1-.6,1.7c-5-3.6-7.6-10.2-9.6-15.9-1.1-3.2-3.9-11.6-4.2-14.6s0-2.2.4-3.5Z"/>
  <path class="st0" d="M730.4,626.8c-.6-2.7-4.2-1.9-6.2-2.6v-3.3c.6-.8,12.1-.8,13.9-.7s3.8.7,3,3.1-6.2,1.5-6.2,3.5v14.8c-.7,1.4-4.5,1-4.5,0-.6-4.3.8-10.8,0-14.8Z"/>
  <path class="st0" d="M862.1,622.8c.4-1.9,3.7-3.7,4.8-1.4s-.6,15.5.9,17c2.1.2,8.9-.8,8.5,2.6l-.9,1.4h-12.5l-.9-.9c.8-5.3-1.1-13.8,0-18.7Z"/>
  <path class="st0" d="M293.7,353.6c1,1.2,1.9,2.8,1.1,4.3s-5.2,4.1-5.9,4.3c-3.3,1-10.7-.9-10.2-5.1.7-6.8,11.1-8.2,15.1-3.5Z"/>
  <path class="st0" d="M688.4,621.7c.4-1.2,3.7-1.9,4.6-.5,1.6,2.5-.2,12.8.6,16.3l.9.8,7,.9c1.1.7.4,3.1-.3,3.1h-11.9l-.9-.9v-19.9Z"/>
  <path class="st0" d="M575.4,622.2c.2-1,1.5-2,2.6-2,.9,0,1.6.7,1.9,1.5.8,2.7-.8,15.6.8,16.6l7.9.9c1.1.8.4,3.1-.3,3.1h-11.9l-.9-.9c.7-5.8-.9-13.7,0-19.3Z"/>
  <path class="st0" d="M296.2,350.1c3.3-2.8,17.8,2.3,18.6,5.4s-2.2,4.5-3.6,4.7-6.3-1.7-7.1-2c-3.5-1.3-9-3.6-7.9-8.2Z"/>
</svg>