<?xml version="1.0" encoding="UTF-8"?>
<svg id="Layer_1" xmlns="http://www.w3.org/2000/svg" version="1.1" viewBox="0 0 1080 1080">
  <!-- Generator: Adobe Illustrator 29.5.1, SVG Export Plug-In . SVG Version: 2.1.0 Build 141)  -->
  <defs>
    <style>
      .st0 {
        fill: #fff;
      }
    </style>
  </defs>
  <path class="st0" d="M807.4,171.2c13.4-18,9.7-43.5-8.3-56.9h0c-18-13.4-43.5-9.7-56.9,8.3l-145.4,194.9,51.4,66.9c.3-.4.6-.7.9-1.1l158.2-212.1Z"/>
  <path class="st0" d="M798.4,725.4L350.5,124.9c-13.4-18-38.9-21.7-56.9-8.3h0c-18,13.4-21.7,38.9-8.3,56.9l447.9,600.5c13.4,18,38.9,21.7,56.9,8.3h0c18-13.4,21.7-38.9,8.3-56.9Z"/>
  <rect class="st0" x="276.9" y="105.7" width="538.9" height="81.3" rx="40.6" ry="40.6"/>
  <path class="st0" d="M435.5,509.5c-.4.5-.8.9-1.1,1.4l-159,211.6c-5.5,7.3-8.2,15.9-8.2,24.4,0,12.4,5.6,24.5,16.2,32.5,17.9,13.5,43.4,9.9,56.9-8.1l145.8-194.1-50.7-67.7Z"/>
  <rect class="st0" x="266.6" y="708.8" width="538.9" height="81.3" rx="40.6" ry="40.6" transform="translate(1069.4 1500.6) rotate(-179.8)"/>
  <g>
    <g>
      <path class="st0" d="M285,918.1v4.6c0,6.2,3.4,9.4,10.2,9.4h29.6c3.2,0,5.7-1,7.5-3.1,1.8-2.1,2.7-4.8,2.7-8.3,0-6.8-3.4-10.3-10.2-10.3h-29.6c-8.1,0-14.6-2.5-19.6-7.4-4.9-5-7.4-11.5-7.4-19.7s2.5-15.2,7.4-20.3c4.9-5.1,11.5-7.6,19.6-7.6h30c8.1,0,14.6,2.3,19.6,6.8,4.9,4.5,7.4,10.5,7.4,18v5.1h-18.9v-5.3c0-2-.7-3.5-2-4.8-1.4-1.2-3.1-1.8-5.2-1.8h-29.8c-6.2,0-9.4,3.1-9.4,9.4s3.1,9.9,9.4,9.9h29.3c8.6,0,15.4,2.5,20.6,7.4,5.1,5,7.7,11.7,7.7,20.3s-2.6,16-7.8,21.5c-5.2,5.5-12,8.3-20.5,8.3h-31.8c-8.4,0-15.1-2.5-20.1-7.5-5.1-5-7.6-11.6-7.6-19.8v-4.6h18.9Z"/>
      <path class="st0" d="M325.6,950.5h-31.8c-8.5,0-15.3-2.6-20.5-7.7-5.1-5.1-7.7-11.9-7.7-20.2v-5.1h19.9v5.1c0,6,3.2,8.9,9.7,8.9h29.6c3.1,0,5.4-1,7.1-2.9,1.7-2,2.6-4.6,2.6-7.9,0-6.6-3.2-9.8-9.7-9.8h-29.6c-8.2,0-14.9-2.5-19.9-7.6-5-5-7.6-11.8-7.6-20.1s2.5-15.5,7.6-20.6c5-5.2,11.7-7.8,19.9-7.8h30c8.2,0,14.9,2.3,19.9,6.9,5,4.6,7.6,10.8,7.6,18.3v5.6h-19.9v-5.8c0-1.8-.6-3.3-1.9-4.4-1.3-1.1-2.9-1.7-4.9-1.7h-29.8c-6,0-8.9,2.9-8.9,8.9s2.9,9.4,8.9,9.4h29.3c8.7,0,15.7,2.5,20.9,7.6,5.2,5,7.8,12,7.8,20.6s-2.7,16.2-7.9,21.8c-5.3,5.6-12.3,8.4-20.8,8.4ZM266.6,918.6v4.1c0,8,2.5,14.6,7.4,19.4,4.9,4.9,11.6,7.4,19.8,7.4h31.8c8.3,0,15.1-2.7,20.1-8.1,5.1-5.4,7.6-12.5,7.6-21.1s-2.5-15.1-7.5-19.9c-5-4.8-11.8-7.3-20.2-7.3h-29.3c-6.5,0-9.9-3.5-9.9-10.4s3.3-9.9,9.9-9.9h29.8c2.2,0,4.1.7,5.5,2,1.5,1.3,2.2,3,2.2,5.1v4.8h17.9v-4.6c0-7.3-2.4-13.2-7.2-17.6-4.8-4.4-11.3-6.7-19.3-6.7h-30c-7.9,0-14.4,2.5-19.2,7.5-4.8,5-7.3,11.7-7.3,19.9s2.4,14.5,7.3,19.4c4.8,4.8,11.3,7.3,19.2,7.3h29.6c7.1,0,10.7,3.6,10.7,10.8s-1,6.4-2.9,8.6c-1.9,2.2-4.6,3.3-7.9,3.3h-29.6c-7.1,0-10.7-3.3-10.7-9.9v-4.1h-17.9Z"/>
    </g>
    <g>
      <path class="st0" d="M446.5,873.4h-36.2v76.7h-18.9v-94.6h56.6c8.8,0,15.9,2.7,21.3,8.3,5.4,5.5,8,12.8,8,22s-2.7,17-8,22.6c-5.4,5.7-12.4,8.5-21.3,8.5h-28.4v-17.8h26.8c3.9,0,6.9-1.1,9-3.4,2.1-2.3,3.2-5.5,3.2-9.6,0-8.4-4.1-12.7-12.2-12.7Z"/>
      <path class="st0" d="M410.8,950.5h-19.9v-95.6h57.1c8.9,0,16.2,2.8,21.6,8.4,5.4,5.6,8.2,13.1,8.2,22.4s-2.7,17.2-8.2,23c-5.4,5.8-12.7,8.7-21.6,8.7h-28.9v-18.8h27.3c3.7,0,6.6-1.1,8.6-3.2,2-2.2,3-5.3,3-9.3,0-8.2-3.8-12.2-11.7-12.2h-35.7v76.7ZM391.9,949.5h17.9v-76.7h36.7c8.4,0,12.7,4.4,12.7,13.2s-1.1,7.6-3.3,10c-2.2,2.4-5.4,3.5-9.4,3.5h-26.3v16.8h27.9c8.6,0,15.7-2.8,20.9-8.4,5.2-5.6,7.9-13.1,7.9-22.3s-2.7-16.3-7.9-21.7c-5.2-5.4-12.3-8.1-20.9-8.1h-56.1v93.6Z"/>
    </g>
    <g>
      <path class="st0" d="M585.3,950h-20.3l-10.4-21.6h-37.6l7.9-17.8h21.4l-15.4-32.3-33.9,71.7h-20.3l45.4-94.6h17.5l45.7,94.6Z"/>
      <path class="st0" d="M586.1,950.5h-21.4l-10.4-21.6h-38l8.4-18.8h20.9l-14.6-30.6-33.6,71h-21.4l45.8-95.6h18.1l46.2,95.6ZM565.4,949.5h19.2l-45.2-93.6h-16.8l-44.9,93.6h19.2l34.2-72.4,16.1,33.9h-21.8l-7.5,16.8h37.1l10.4,21.6Z"/>
    </g>
    <g>
      <path class="st0" d="M627.9,855.4h65.3v18h-65.3v58.7h67.6v18h-67.6c-5.3,0-9.8-1.9-13.4-5.7-3.6-3.8-5.5-8.4-5.5-13.9v-55.4c0-5.5,1.8-10.1,5.5-13.9,3.6-3.8,8.1-5.7,13.4-5.7Z"/>
      <path class="st0" d="M696,950.5h-68.1c-5.4,0-10-2-13.8-5.8-3.7-3.9-5.6-8.7-5.6-14.3v-55.4c0-5.6,1.9-10.4,5.6-14.3,3.7-3.9,8.4-5.8,13.8-5.8h65.8v19h-65.3v57.7h67.6v19ZM627.9,855.9c-5.1,0-9.5,1.9-13.1,5.5-3.5,3.7-5.3,8.2-5.3,13.6v55.4c0,5.3,1.8,9.9,5.3,13.6,3.5,3.7,7.9,5.5,13.1,5.5h67.1v-17h-67.6v-59.7h65.3v-17h-64.8Z"/>
    </g>
    <g>
      <path class="st0" d="M744.9,873.4v58.7h62.6v18h-81.5v-94.6h80.8v18h-61.9ZM754.2,893h43.1v17.6h-43.1v-17.6Z"/>
      <path class="st0" d="M808,950.5h-82.5v-95.6h81.8v19h-61.9v57.7h62.6v19ZM726.5,949.5h80.5v-17h-62.6v-59.7h61.9v-17h-79.8v93.6ZM797.8,911.1h-44.1v-18.6h44.1v18.6ZM754.7,910.1h42.1v-16.6h-42.1v16.6Z"/>
    </g>
  </g>
</svg>