<?xml version="1.0" encoding="UTF-8"?>
<svg id="Layer_1" xmlns="http://www.w3.org/2000/svg" version="1.1" viewBox="0 0 1080 1080">
  <!-- Generator: Adobe Illustrator 29.5.1, SVG Export Plug-In . SVG Version: 2.1.0 Build 141)  -->
  <defs>
    <style>
      .st0 {
        fill: #fff;
      }
    </style>
  </defs>
  <path class="st0" d="M616.2,344.8c-2.6-1.9-5.9-4.2-9.9-6.5-.3-.2-7-4.1-14.4-7.3-19.8-8.6-39.5-10.2-39.5-10.2-16.6-1.4-30.4.9-39.7,3.3-3.5.9-17.3,4.6-33.3,14-18.9,11.2-31.7,25-40,35.8-3.7,5.7-7.6,12.6-11.1,20.7-2.2,5-3.9,9.9-5.2,14.3-3.5,11.8-7.2,30-4.6,51.9,2.1,17.1,7.2,30.1,10.5,37.2,5,10.8,10.7,19.1,15.3,25-1.9-11.3-2.5-21-2.7-28.4-.2-7.5-.4-19.2,2.2-34,1.2-6.7,2.4-13.5,5.8-22.1,4.2-10.6,7.1-18.1,14.3-23.6,8.2-6.3,13.4-3.5,22.7-10,7-4.9,11.1-11.3,13.3-15.8,3.5-1.2,8.8-3,15.5-4.8,2.7-.7,4.2-1.1,9-2.4,13.2-3.5,14.8-4.3,16.5-5.8,3-2.7,6.2-7.7,4.8-11.2-1.8-4.4-10.8-6.4-22.3-3.3-12.3,3.3-24.6,6.5-36.9,9.8,4.4-2.3,36.9-18.7,54-20.6,7-.7,10.3,1,11.9,2.3,4.9,3.9,5.3,9.9,5.3,10.7,12.9,2,23.6,2.3,31.3,2.2,3.7,0,10.9-.2,19.4-3.2,5.7-2,11.4-4,12.2-8.3.9-4.4-3.5-8.6-4.6-9.6Z"/>
  <path class="st0" d="M470.5,547.6c2.6,1.9,5.9,4.2,9.9,6.5.3.2,7,4.1,14.4,7.3,19.8,8.6,39.5,10.2,39.5,10.2,16.6,1.4,30.4-.9,39.7-3.3,3.5-.9,17.3-4.6,33.3-14,18.9-11.2,31.7-25,40-35.8,3.7-5.7,7.6-12.6,11.1-20.7,2.2-5,3.9-9.9,5.2-14.3,3.5-11.8,7.2-30,4.6-51.9-2.1-17.1-7.2-30.1-10.5-37.2-5-10.8-10.7-19.1-15.3-25,1.9,11.3,2.5,21,2.7,28.4.2,7.5.4,19.2-2.2,34-1.2,6.7-2.4,13.5-5.8,22.1-4.2,10.6-7.1,18.1-14.3,23.6-8.2,6.3-13.4,3.5-22.7,10-7,4.9-11.1,11.3-13.3,15.8-3.5,1.2-8.8,3-15.5,4.8-2.7.7-4.2,1.1-9,2.4-13.2,3.5-14.8,4.3-16.5,5.8-3,2.7-6.2,7.7-4.8,11.2,1.8,4.4,10.8,6.4,22.3,3.3,12.3-3.3,24.6-6.5,36.9-9.8-4.4,2.3-36.9,18.7-54,20.6-7,.7-10.3-1-11.9-2.3-4.9-3.9-5.3-9.9-5.3-10.7-12.9-2-23.6-2.3-31.3-2.2-3.7,0-10.9.2-19.4,3.2-5.7,2-11.4,4-12.2,8.3-.9,4.4,3.5,8.6,4.6,9.6Z"/>
  <path class="st0" d="M469.4,401.1"/>
  <g>
    <path class="st0" d="M510.9,433.3l-4.8,47.7h-18.6l4.8-47.7h-13.2l1.5-15h45l-1.5,15h-13.2Z"/>
    <path class="st0" d="M600.6,418.3l-6.3,62.7h-18.2l4.5-44.8-16.3,44.8h-12.4l-7.8-44.8-4.5,44.8h-14.7l6.3-62.7h25.6l5.9,33.3,12.2-33.3h25.7Z"/>
  </g>
  <g>
    <path class="st0" d="M192.9,634l-6.3,63h-24.5l6.3-63h-17.5l2-19.8h59.5l-2,19.8h-17.5Z"/>
    <path class="st0" d="M286.4,697h-28.7l-9.1-31.7h-8.2l-3.2,31.7h-25.9l8.3-82.8h44c9.7,0,17,2.2,22,6.7,4.9,4.5,7,10.4,6.3,17.7-.5,4.8-1.9,9-4.2,12.7-2.3,3.7-6.7,6.9-12.9,9.7l11.6,36.1ZM242.2,647.6h11.1c3.2,0,5.9-.7,8-2,2.1-1.3,3.3-3.3,3.6-5.9.5-5.3-2.5-8-9.1-8h-11.9l-1.6,15.8Z"/>
    <path class="st0" d="M375.3,614.1l-5.5,54.9c-1,10.4-4.9,17.9-11.7,22.4-6.7,4.6-15.1,6.8-25.2,6.8s-18.9-2.2-24.9-6.6c-6-4.4-8.5-11.5-7.5-21.4l5.6-56.2h26.3l-5.3,53.2c-.4,4,.2,6.9,1.7,8.7,1.5,1.8,4.1,2.7,7.9,2.7s5.7-.7,7.9-2c2.1-1.3,3.5-2.8,4-4.5.6-1.7,1.1-4.9,1.6-9.7l4.9-48.5h20.4Z"/>
    <path class="st0" d="M374.5,673l24.4-4.2c1.3,6.7,6.2,10,14.6,10s9.9-1.7,10.3-5.1c.2-1.8-.4-3.2-1.8-4.2-1.4-1-4-1.9-7.8-2.6-14.5-2.8-23.6-6.4-27.4-10.9-3.7-4.5-5.3-9.8-4.7-15.8.8-7.8,4.5-14.3,11-19.5s15.5-7.8,26.8-7.8c17.2,0,27.8,6.8,32,20.3l-22.1,6.4c-1.7-5.5-5.9-8.3-12.7-8.3s-8.6,1.7-9,5.2c-.2,1.5.4,2.7,1.6,3.6,1.2.8,3.6,1.7,7.2,2.4,9.9,2.1,16.9,4,20.9,5.6s7.3,4.4,9.8,8.3c2.4,3.9,3.4,8.5,2.9,13.8-.8,8.4-5,15.2-12.4,20.4-7.4,5.2-16.8,7.8-28,7.8-20.5,0-32.4-8.4-35.5-25.2Z"/>
    <path class="st0" d="M499.5,634l-6.3,63h-24.5l6.3-63h-17.5l2-19.8h59.5l-2,19.8h-17.5Z"/>
    <path class="st0" d="M649.5,614.1l-8.3,82.8h-24l5.9-59.2-21.5,59.2h-16.4l-10.3-59.2-5.9,59.2h-19.4l8.3-82.8h33.8l7.8,44,16.1-44h33.9Z"/>
    <path class="st0" d="M702.4,697l-3.1-16.3h-22.6l-6.7,16.3h-21l34.3-82.8h27.3l18.1,82.8h-26.4ZM682.9,662.6h13.6l-4.4-24-9.2,24Z"/>
    <path class="st0" d="M770.7,614.1l-8.3,82.8h-25.9l8.3-82.8h25.9Z"/>
    <path class="st0" d="M777.1,697l8.3-82.8h32.6c14.2,0,24.3,4.1,30.6,12.4,6.2,8.3,8.8,17.8,7.7,28.6-1.2,12.4-6,22.4-14.4,30.2-8.3,7.7-18.5,11.6-30.6,11.6h-34.2ZM804.9,677.9h6.7c4.3,0,8.1-2,11.4-6.1,3.4-4.1,5.4-9.6,6.1-16.7.6-6-.2-11.2-2.4-15.6-2.2-4.4-5.7-6.6-10.7-6.6h-6.7l-4.5,45Z"/>
    <path class="st0" d="M856.7,673l24.4-4.2c1.3,6.7,6.2,10,14.6,10s9.9-1.7,10.3-5.1c.2-1.8-.4-3.2-1.8-4.2-1.4-1-4-1.9-7.8-2.6-14.5-2.8-23.6-6.4-27.4-10.9-3.7-4.5-5.3-9.8-4.7-15.8.8-7.8,4.5-14.3,11-19.5,6.5-5.2,15.5-7.8,26.8-7.8,17.2,0,27.8,6.8,32,20.3l-22.1,6.4c-1.7-5.5-5.9-8.3-12.7-8.3s-8.6,1.7-9,5.2c-.2,1.5.4,2.7,1.6,3.6,1.2.8,3.6,1.7,7.2,2.4,9.9,2.1,16.9,4,20.9,5.6s7.3,4.4,9.8,8.3c2.4,3.9,3.4,8.5,2.9,13.8-.8,8.4-5,15.2-12.4,20.4s-16.8,7.8-28,7.8c-20.5,0-32.4-8.4-35.5-25.2Z"/>
  </g>
</svg>