<?xml version="1.0" encoding="UTF-8"?>
<svg id="Layer_1" xmlns="http://www.w3.org/2000/svg" version="1.1" viewBox="0 0 1080 1080">
  <!-- Generator: Adobe Illustrator 29.5.1, SVG Export Plug-In . SVG Version: 2.1.0 Build 141)  -->
  <defs>
    <style>
      .st0 {
        fill: #fff;
      }
    </style>
  </defs>
  <polygon class="st0" points=".3 -5.6 .3 -6.3 1086.7 -6.3 1086.7 1080 1086 1080 1086 -5.6 .3 -5.6"/>
  <g>
    <path class="st0" d="M314.3,585.3c1.1-8.5,7.6-17.5,11.8-24.7,1,0,1.7-.3,1.3,1s-2.5,4.4-3.2,6.5c-2.9,7.7-5.2,18.9-.2,26.2,9.7,13.9,28.9-.5,25.7-14.9.6-.6,4.8,2.4,5.9,2.8,8.9,3.4,22.3,0,31.1-3,12.7-4.4,24.5-13.1,38-13.7-1.3-2.7-7.6-2.5-10.1-2.1s-3.1,3.1-4.5,3.8c-3.4,1.5-13.1-3.8-11.1-5.9,3.2.4,5.8,1.1,9,0,.2-1-1.2-.9-1.9-1.2-12.6-4-53.1,2.3-60.2,15.1s-.4,4.9-2.5,6.2c-4.1-10.9-3-22.3-.4-33.3,2.5-10.4,11.8-28.9,10.8-38.6s-12.6-12.6-18.6-14.7c-38.3-13.7-97.3,3.1-134.6,16.5-9.6,3.5-22.4,10.3-32,11.8-15.4,2.4-45.8,2.2-59.8-4.7s-4.4-2.8-4.4-3.3c11.9-10.7,27.3-18.8,41.9-25.5,56.9-25.9,164.7-52.9,210.9,3.3,7,8.5,7.7,13.1,4,23.4-5.2,14.7-16.9,27.7-15.8,44.3,10-1.7,20.1-3.9,30.2-4.9s24.4-1.9,32,.7,4.1,2.5,5.6,2.8c2.3.4,5.1-.2,7.5,0,7,.9,10.8,6.3,8.7,13.1-2.5.1-4-2.4-6.6-2.5-4.2,0-15.7,5.4-20.1,7.4-15.4,7.2-43.1,25.1-58.6,27.5s-20.7-1.6-29.7-1.9c-26.8-1.1-53,2.8-77.5,13.9-.4-1.9.5-1.2,1.4-1.7,3.7-2.2,8.7-4.3,12.7-6,19.8-8.4,41.4-12.8,63-13.1.3-3.4-.4-7.4,0-10.8Z"/>
    <path class="st0" d="M344.1,528c-2.2.5-1.1-2.4-1.7-4.2-2-6.1-13.7-7.9-19.5-8.3-31.3-2.4-58.9,13.8-84.3,29.6s-7.7,6.4-12.4,7.7-11.9,2-16.5,2.3c-18.4,1.1-36.4-1.5-53.8-6.9-.4-1.6.3-1.1.9-1.6,5.1-4,17-9.9,23.2-12.9,38.4-18.9,103.8-37.2,146.3-29.7,14.2,2.5,25.1,7.6,17.9,24.1Z"/>
    <path class="st0" d="M339.3,539.1c-5.9-2.5-10.6-2.3-16.8-1.2-12.7,2.2-26.4,11.2-36,19.6-6,5.3-15.4,18-21.5,20.8-13.2,6.1-32.9,9.1-47.2,7.3-.3-1.2.5-1.4,1-2.1,11.2-14.6,43.4-34,60.3-41.8s39.5-16.7,54.3-12.3,6.6,4.4,5.9,9.7Z"/>
    <path class="st0" d="M644.2,587.4c-.5,1.7-7.4,1.1-9.1.7l-.6-.8.2-55.1c1-2.1,10.9-2,12.1-.3l8,35,8.4-34.7c1.8-2.6,9.1-1.4,12.1-.7v57c-3.1-.4-7.3,1.1-9.7-1v-31.6l-7.6,32.2h-5.6c-1.4-.8-6.3-26.8-7.3-30.8s0-2.3-1-2.1v32.3Z"/>
    <path class="st0" d="M843.2,530.8c4.6.5,9,2.4,9.9,7.5s.6,23.7-.9,26.5-3.6,2.8-3.7,4.5l4.8,19.1-9.4-.7-5.3-18h-4.8c0,0,0,17.6,0,17.6-2.4,2.1-6.6.6-9.7,1v-56.6l1-1c5.8.5,12.4-.6,18.1,0ZM833.8,560c2.2-.2,8.1.7,9.4-1.4s.6-13.1.4-15c-.5-4.5-6.3-2.8-9.8-3.1v19.4Z"/>
    <path class="st0" d="M817.2,579.8c-.7,4.6-3.6,7.8-8.2,8.5-6.7,1-19.1,1.8-21.5-5.9s-1.5-32.7-.9-40.1c.6-8.1,3.4-10.7,11.5-11.4,15.1-1.4,21.5,3.5,18.4,19.1h-8.4c-1.5-1-.1-5.7-.8-7.6s-7.7-2.2-9.9-1.2c-.6.5-1,2.4-1.1,3.3-.8,7.1-.7,21.9-.1,29.1.1,1.7.3,3.5,1.4,4.9,11.5,2.3,10-2.2,9.7-11.5l-4.8-.8v-8.9c0,0,13.4,0,13.4,0l1,1c-.7,6.7.9,15.1,0,21.5Z"/>
    <path class="st0" d="M885,586.1c-3.1,2.9-13.3,2.8-17.4,2.2-7-.9-8.3-5-8.8-11.4-.7-9.3-.8-26.2,0-35.4.7-8,4.3-10.3,12.1-10.8s16.2,1,17.1,12.2c.7,9.2.8,25.7,0,34.8s-1.1,6.6-3,8.4ZM878.3,541.2c-4.4-.8-9.2-2.6-9.8,3.1-1,10.3.6,22.6.4,33.1.8,2.7,7.7,2.7,9.4.3v-36.5Z"/>
    <path class="st0" d="M519.2,555.1h9v-23.3c2.1-1.7,7.6-1.7,9.7,0v56.6c-3.1-.4-7.3,1.1-9.7-1v-22.6h-9v23.6l-9.4-.7-.2-55.9.6-.8c.9-.6,8.1-.8,9.1.7v23.3Z"/>
    <path class="st0" d="M608.8,569.7l.6,8.1c10.4,4.3,8.4-3.8,8.4-11.1l-18.5-6.7c.2-6.4-2.2-20.9,1.7-25.9,3.5-4.4,20-4.3,23.8-.5s2.6,4.3,2.6,4.5v12.2l-9.1-.3c-1.9-2.8,1.3-7.8-2.7-9.1-9.4-3.1-6.8,7-6.9,12.8.6.6,14,3.9,16.3,4.9s1.9.8,2.3,1.9c.6,2,.4,16.5.1,19.3s-1.6,5.9-4.4,7.4c-4,2.1-17.8,2.2-21.4-1.1s-2.7-4.1-2.7-4.9v-11.5h9.7Z"/>
    <path class="st0" d="M904.7,531.5v45.5c0,2.4,9.7,2.4,9.7,0v-45.5c3-1,6-1,9,0v50.4c0,2.4-4.1,5.5-6.4,6.1-3.7,1-13.8,1-17.2-.6s-4.9-4.4-4.9-6.9v-49c3.2-1,6.5-1,9.7,0Z"/>
    <path class="st0" d="M949.5,530.8c4,.5,7.8,2.1,9.2,6.1s1.4,21.7.4,25.7c-2,7.8-12,7-18.3,7.1l-.3,18.1-9.4.7v-56.6l1-1c5.5.5,12-.6,17.4,0ZM940.8,540.5v19.4c2-.2,7.3.6,8.4-1.2s1.2-16.6-.5-17.7l-7.9-.6Z"/>
    <path class="st0" d="M761.6,540.5h-18.8v14.6h14.6c-.4,3.1,1.1,7.3-1,9.7h-13.5v13.9h17.7c2.1,2.4.6,6.6,1,9.7h-27.4l-1-1v-55.6l1-1h26.4c2.1,2.4.6,6.6,1,9.7Z"/>
    <path class="st0" d="M574.1,540.5h-18.4l-1,1v13.5h14.2c1.7,2.1,1.7,7.7,0,9.7h-14.2v13.9h18.4c1.7,2.1,1.7,7.6,0,9.7h-27.4v-56.6l1-1h26.4c2.1,2.4.6,6.6,1,9.7Z"/>
    <polygon class="st0" points="941.5 601.7 941.5 603.7 483.1 603.7 483.1 602.7 484.1 601.7 941.5 601.7"/>
    <path class="st0" d="M813,448.1v36.5c0,5.1,8.6,3.4,11.8,3.8-2.7-20.9,24.4-20.9,21.5,0h12.2c1.4,0,5.2-2.2,5.2-3.8v-12.2h3.5v12.8c0,1.1,4.7,3,6,3.1,8.4.3,5.3-9.5,5.9-14.8l3.4-1.1v12.2c0,1.8,4.3,3.7,6,3.8s5.8-1.8,5.8-3.1v-17.4c0-1.4,4.2-1.4,4.2,0v15.3c0,.8-1.5,5.3-2.2,6.2-3.5,4.6-11,2.3-14.7-.9-4.5,5.3-10.9,4.1-15.7,0-2.5,6.7-17.1,1.5-20.9,3.8s-1.4,2.2-2.4,3.1c-3.3,2.8-9,3.1-13.1,2.7l-3.3-6c-8.3-.8-15.7,2.9-16.6-8.1-.9-10.9.7-23,0-34.1.2-2,1.8-1.8,3.5-1.7ZM840.6,478.2c-1-1-3.6-1.7-5-1.7-9,0-7.7,11.5-5.1,17.4,5.2.4,10.7.7,12.1-5.4s.2-8.2-2-10.3Z"/>
    <path class="st0" d="M484.5,540.5h-9s.7-9.4.7-9.4h27.2l.7,9.4h-9s0,46.2,0,46.2c0,.2-.7,1.6-1.2,1.8-3-.4-7,1-9.2-1.1v-46.9Z"/>
    <path class="st0" d="M709.5,578.7h17c2.1,2.4.6,6.6,1,9.7h-27.8v-56.6c2.1-1.7,7.7-1.7,9.7,0v46.9Z"/>
    <path class="st0" d="M334.4,551.6c-9.8-2-18.2,8.1-22.8,15.8s-5.2,12.9-9.5,16.9-14.6,9-19.1,9.4-1.2.5-2.1-.7c7.4-14.4,18.3-28.4,31.3-38.1s22.1-15.4,22.2-3.2Z"/>
    <path class="st0" d="M692.1,588.5l-9.4-.7-.2-55.9.6-.8c.9-.6,8.1-.8,9.1.7v56.6Z"/>
    <path class="st0" d="M781.7,448.1v40.3h11.5c.4,0,1.6-.8,2.2-.9.3-.2.9-1.3.9-1.5v-19.1h3.5v20.5c0,.2-1.4,2.8-1.6,2.9-2.9,2.9-12.4,1-16.5,1.6-.4,12-12,15.5-22.1,12.7s-9.9-9.6-9.1-17.2,2.1-10.8,5.5-6.2c-4.9,12.4-1.2,22.4,13.6,20.4s8.3-5,8.8-10.7c1.1-13.1-.9-27.7,0-41,.2-2,1.8-1.8,3.5-1.7Z"/>
    <path class="st0" d="M693.5,491.9c-.2,6.5-5.8,10.6-10.8,13.9l-1.7-3c3.4-2.3,6.7-4.4,8.3-8.4s1.4-4.6,1.4-4.9v-22.6h3.5v21.5h32c-6.2-7.3-1-19.6-14.3-18.8-2.9.2-4.6,1.4-7.3,2.1l-.7-3.4c6.3-3,13.3-4.9,18.4,1.3s3.3,9.9,5.4,14.8,2.1,2.1,2.5,3.8.2,3.7-.9,3.7h-35.8Z"/>
    <path class="st0" d="M671.3,490.5c-12,5-18.9-3.7-16.5-15.5s17.6-11.3,20.4-1.2.1,27.9-12.2,31c-2.9.7-3.9-1.3-1.7-3.1,3.9-3,9.7-5,10-11.2ZM664.9,470.5c-9.4.6-10,18.7,1.8,17.9,1.3,0,4.8-1.3,5.2-2.5s.3-8.7,0-10.3c-.5-3.4-3.8-5.3-7.1-5.1Z"/>
    <path class="st0" d="M645.6,466.9v20.5c0,2.6-3.7,4.2-6,4.5-5.6.7-28.3.7-32.9-1s-3.8-1.9-4.9-3.4-2.1-3.9-2.1-4.2v-11.8c0-.7,2.2-1.8,3.1-.4,2.3,3.3-3.1,13.2,5.9,16.3,4.6,1.6,22.8,1.7,28.1,1s5.2-1.2,5.2-2.4v-19.1h3.5Z"/>
    <path class="st0" d="M951.6,488.4c4.3-.6,3.6-9.3,3.1-12.8s-3.7-5.9-5.2-5.9h-11.8l-1-1,.7-2.1c7.6-2.3,19.5-1.3,20.8,8.4s.7,13.4-1.3,15.2-3.6,1.8-3.8,1.8h-19.4c-1.3,0-1.3-3.5,0-3.5,5.2,0,13.3.7,18.1,0Z"/>
    <polygon class="st0" points="924.8 448.1 924.8 491.9 921.4 491.9 921.4 449.2 922.5 448.2 924.8 448.1"/>
    <path class="st0" d="M614.3,637.1v-17l1.1-.9c3.5-.4,11,.2,10.7,5.1s-2,3.2-2,3.5,2.2,1.9,2.3,4.1c.3,6.7-7.6,5.1-12.2,5.2ZM617.1,626.7c3.8.1,7.6.9,5.9-4.2-1.6-1.6-3.9-1.5-5.9-1.4v5.6ZM617.1,635c4.2.5,8.7,0,6.3-5.3l-6.3-1v6.3Z"/>
    <path class="st0" d="M672.7,632.2v-12.2l1.7-1,1.1,1v17c-1.3,0-2.1.2-3.1-.7-2.6-2.2-5.3-10.2-8.7-12.5v13.2h-2.1v-18.1c1.4-.2,1.8.2,2.8,1,2.9,2.6,5.1,9.4,8.3,12.2Z"/>
    <path class="st0" d="M629.6,620.1l1.1-.9c7.8-1.2,15.9,3.5,8,10.6l4,7.3c-6,.7-3.2-8.9-10.4-6.9v7s-2.8,0-2.8,0v-17ZM632.4,628c9.7,1.7,9.6-8.5,0-7v7Z"/>
    <path class="st0" d="M732.4,620.1l1.1-.9c7.8-1.2,15.9,3.5,8,10.6l4,7.3c-6,.7-3.2-8.9-10.4-6.9v7s-2.8,0-2.8,0v-17ZM735.2,628c9.7,1.7,9.6-8.5,0-7v7Z"/>
    <path class="st0" d="M768.5,620.1c6.9-3.5,17.5,2.3,9.2,9.7l4,7.3c-5.9.7-3.5-9.1-10.4-6.9v7s-2.8,0-2.8,0v-17ZM777.4,622l-6.1-.9v7c4.8.5,8.9-.6,6.1-6.1Z"/>
    <path class="st0" d="M721.9,619.2c10.1-.8,11,19.9-1.6,17.9-7.2-1.2-7.7-17.1,1.6-17.9ZM721.1,621.2c-5.2,1.1-5.6,15.3,2.6,13.8,5-1,4.7-15.3-2.6-13.8Z"/>
    <path class="st0" d="M679.6,637.1v-18.1c17.1-2.7,17.1,21.2,0,18.1ZM681.7,621.1v13.9c11.2,1.9,11.2-15.2,0-13.9Z"/>
    <path class="st0" d="M812.3,624.6h-2.7c-.2-5.6-10.3-4-6.4,1.1s7,1.5,8.6,5.3c2.4,5.7-7.7,8.5-11.6,3.9s-1.7-3.1,0-3.4,1.7,3,4.2,3.5,2.8,0,4.1,0c1.5-.5,1.3-2.7,1-4-3.2-1.5-9.9-2.7-9.6-7.3s12.1-5.7,12.5,1Z"/>
    <path class="st0" d="M652.5,619.1l7,18h-2.7c0,0-1.4-4.4-1.4-4.4l-7.6-.3-1.6,4.7h-2.7c0,0,7-17.9,7-17.9h1.9ZM653.9,630.1l-.5-2.6-2.3-5-2.1,7.6h4.9Z"/>
    <path class="st0" d="M785.9,619v12.8c0,2.4,4.8,4.2,6.9,2.8.3-.2,1.4-1.9,1.4-2.1v-13.5h2.1v14.9c0,.2-2.6,2.8-3.3,3-2.7.8-9.2-.4-9.2-3.7v-14.2h2.1Z"/>
    <path class="st0" d="M711.9,619c.6.2,1.3,1.3,1,2.1l-8.7.7-.3,5.6h7.6s0,2.1,0,2.1h-7.6s0,7.6,0,7.6h-2.1v-18.1h10.1Z"/>
    <path class="st0" d="M334.3,580.2c11.2-1.3,13.7,16.2,2.5,17.9-12.8,1.9-13.9-16.6-2.5-17.9ZM335,581.7c-9.7.5-9.7,16.2,1.2,15.1,9.4-.9,8.3-15.7-1.2-15.1Z"/>
    <path class="st0" d="M765.4,619l1,2.1c-2.1.2-4.8-.8-6.2,1v14.9h-2.1v-16h-5.6s0-2.1,0-2.1h12.8Z"/>
    <path class="st0" d="M826.5,619l1,2.1c-2.1.2-4.8-.8-6.2,1v14.9h-2.1v-16h-5.6s0-2.1,0-2.1h12.8Z"/>
    <path class="st0" d="M786.4,499.6c4.8-1.6,4.8,4.5,1.3,4.5s-3.5-3.8-1.3-4.5Z"/>
    <path class="st0" d="M713.3,499.1c2.5,0,3.5,3.8,1.3,4.5-4.8,1.6-4.8-4.5-1.3-4.5Z"/>
    <path class="st0" d="M793,503.6c-2.7-2.8,1.8-5.9,3.7-3.4s-1.9,5.2-3.7,3.4Z"/>
    <path class="st0" d="M942.4,458.4c-2.2-2.3,1.2-5.2,3.3-3.7s-1.2,5.9-3.3,3.7Z"/>
    <path class="st0" d="M621.8,499.6c2.7-.8,5.1,2.4,2.3,3.7-3.4,1.6-5.8-2.7-2.3-3.7Z"/>
    <path class="st0" d="M337.2,587.1l2.8-2.1.7,8.3c-2.7.7-.8-3.3-1.4-4.2h-2.8c-.6.9,1.3,4.9-1.4,4.2,0-.9-.5-9.6,1.4-8l.7,1.7Z"/>
    <path class="st0" d="M333.7,585.7c-2.2,2.2-.9,5-1.7,7.6l-1.7-7.6h3.5Z"/>
  </g>
</svg>