<?xml version="1.0" encoding="UTF-8"?>
<svg id="Layer_1" xmlns="http://www.w3.org/2000/svg" version="1.1" xmlns:xlink="http://www.w3.org/1999/xlink" viewBox="0 0 8192 8192">
  <!-- Generator: Adobe Illustrator 29.5.1, SVG Export Plug-In . SVG Version: 2.1.0 Build 141)  -->
  <defs>
    <style>
      .st0 {
        fill: #fff;
      }

      .st1 {
        fill: url(#linear-gradient);
      }
    </style>
    <linearGradient id="linear-gradient" x1="2515.2" y1="1483.6" x2="2515.2" y2="5039.2" gradientTransform="translate(0 8192) scale(1 -1)" gradientUnits="userSpaceOnUse">
      <stop offset="0" stop-color="#ff55bc"/>
      <stop offset="0" stop-color="#fe54bd"/>
      <stop offset=".4" stop-color="#f64bc3"/>
      <stop offset=".6" stop-color="#00cfff"/>
    </linearGradient>
  </defs>
  <path class="st0" d="M7160.1,5008.5h-.3c-7.5-136.8-35.2-269-82.7-396.2-62.6-167-157.3-319.2-281-451.1-14.3-15.1-52.8-53.4-67-66.6-46.9-43.1-94.7-82-144.3-117-14.9-10.5-25.4-18.2-39-28.5-5-3.8-5.7-10.9-1.7-15.6l2.2-2.5c5.4-6.2,13.9-15.6,19-20.9,87.3-90,159.7-192.1,215-302.9,43.4-87.1,74.4-172.7,96.7-267,47.2-200.6,41.8-414.1-15.3-612.3-18.7-64.5-40.7-123-70.3-186-4.9-10.3-20.6-41.4-26.7-52.9-50-93.1-109.8-176.5-183.3-255.5-12.1-12.9-49.4-50.2-62.7-62.6-69.1-63.5-139.9-115.3-225.1-164.5-107.8-62.2-223.6-109.3-348.5-141.7-80-20.9-167.2-35.9-255.7-44.2-44-4.2-79.8-6.2-138.2-8.1-20.8-.6-478.1-1-1668.4-1.1-376.8,0-695.5,0-772.7.2-4.1,0-7.8,2.3-9.6,6l-421.3,847.6c-3.6,7.2,1.6,15.6,9.6,15.6,174.8.4,744.2.1,2203-.8,210.4,0,220.3,0,288,1.8,46.3,1.3,93.3,3.3,110.5,4.7,77.7,6.3,151.3,28.6,212.5,64.3,33.3,19.5,62.8,42,88.8,67.9,16.5,16.5,28.1,29.8,41.4,47.5,66.6,89.1,96.3,201.6,85.2,321.7-4.4,47.8-16.1,99.5-32.3,142.9-36.2,96.4-99.5,176.9-183,232.7-37,24.7-73.3,42.7-117.2,58.1-14.3,5-25.9,8.5-43.4,12.9-38,9.7-74.5,15.2-116.2,17.6-22.8,1.3-168.4,1.7-442.3,1.3-394.4-.6-348.5-.7-355.8.8-17.2,3.5-29.1,10.3-39.8,23.1-4.7,5.5-9.4,13.2-16.7,27.2-4,7.6-22.9,43.4-42.1,79.8-53.8,102.1-128.5,242.8-211.8,398.8-59.1,110.9-136.3,255.9-151.4,284.3-3,5.6-8.7,18.6-15.9,35.8-3,7.1,2.2,14.9,9.9,14.9,58.8.3,281.6.4,693.3.4,725.5,0,782.3.2,809,2.1,55.8,4,98.3,11.3,146.3,25.2,64.8,18.7,126.5,49.4,177.3,88.3,17.8,13.7,34.1,27.9,50.6,44.6,23.4,23.7,43.9,48.6,62.2,75.9,35,52.5,61.1,112.5,77.5,177.7,18.2,72.5,24.7,147.1,19,218.2-9.9,121.1-55.3,235.7-135.4,341.4-36.5,48-82.3,96.3-126.3,133.4-50.7,42.5-98.5,73.9-156.4,103-22.6,11.3-38.4,18.5-60.3,27.2-92.4,37.2-200,60.2-312.8,66.6-8.1.5-19.4,1.1-25.1,1.4-5.9.3-65.8.8-144,1.1-159.6.6-1664.6.6-1884.7,0l-153.5-.4h-.9l-16.1-1.4c-9.1-.8-17.3-1.4-18.2-1.4s-1.8-.2-1.8-.5,21-40.7,46.8-90c25.7-49.3,61.5-117.8,79.5-152.3s50.2-95.9,71.4-136.6,70.8-135.4,109.9-210.5c39.2-75.1,81.5-155.9,93.7-179.4,36.8-70.5,88.7-169.8,174.3-333.7,44.6-85.2,88.2-168.8,97.1-185.8,24.7-47.2,125.1-239.6,193.8-371,78.4-150.3,150.4-287.8,306.7-587.5,21-40.4,70.9-135.6,110.5-211.7,39.7-76,80.6-154.5,91-174.3l10.6-20.2c3.7-7.2-1.5-15.8-9.6-15.8l-705.5.5c-3.4,0-6.5,1.6-8.6,4.2-273.8,359.4-547.6,718.8-821.5,1078.3-4.8,5.9-9.6,11.7-14.4,17.6,7.6-.1,15.3-.2,22.9-.3h189.8c81.3.3,162.7.4,244,.6,6.5.1,13,.2,19.5.3-3.6,5.6-7.1,11.1-10.8,16.7-40.3,61.9-82.1,120.3-125.1,175.5-39.2,55.3-78.4,110.7-117.6,166-36.5,51.5-72.9,103-109.4,154.5-58.1,82.1-116.2,164.3-174.3,246.4-48.2,68.1-96.4,136.3-144.7,204.4-86.3,122-172.6,244-258.9,365.9-67.2,95-134.4,190-201.7,285-60.3,85.2-120.6,170.5-180.9,255.7-28,39.5-55.9,79-83.9,118.6-17.5,24.7-34.9,49.4-52.4,74.1-14.5,20.5-29,41-43.6,61.5-74.1,104.8-148.3,209.6-222.4,314.3-3.8,5.3-7.6,10.7-11.3,16,2570.1,6.8,3656.7,5.4,3830.1-.7,13.9-.5,27.2-1.1,27.2-1.1,181-8.2,363.7-38.6,532.2-88.9,135.3-40.4,261.2-91,376.3-151.6,148.2-77.9,280.7-174,391.9-284,22.3-22.1,39.5-39.9,55.4-57.2,108.8-119.1,198.1-252.8,270.2-404.9,41-86.6,78-183.3,101.5-266.1,27.6-97,44.5-196.2,50.2-296,2.8-46,2.9-104,.3-149v.2Z"/>
  <path class="st0" d="M3176.1,3152.9l-739.7.5-769.9,1549.1,208.9-.5,244.6-.6-6.9,13.3c-3.9,7.3-24.3,46.2-45.5,86.5-65.5,124.4-109.3,207.7-259.4,492.9-199,378.2-241.6,459.2-260.8,495.6-92.5,175.6-157.8,299.7-207.5,394.3-56,106.3-77.3,146.8-150.7,286.4-16.5,31.5-36.8,70.1-45.1,85.9-20,38.3-54.4,104.8-69,132.7l-10.3,19.8,351.2-1.1c18.9-29.7,75-117.7,151.9-238.6,11.2-17.5,44.5-69.7,73.8-115.9,29.5-46.2,62.6-98.4,73.8-115.9,11.1-17.5,44.2-69.3,73.3-115.2,73.3-115.2,118.9-186.7,175-274.9,26.4-41.5,72-113.1,101.1-158.9,29.3-45.9,84.2-132.3,122.1-192,38-59.7,81.7-128.3,97-152.3,15.4-24.1,45.4-71.4,66.9-104.9,21.3-33.6,47.1-73.9,57-89.5,30.6-48.1,281.8-442.7,363.8-571.5,34.1-53.3,59.1-92.9,122.3-192.2h-480.8l763-1233h-.1Z"/>
  <path class="st1" d="M2785.5,4252.6c280.6-366.6,561.2-733.2,841.8-1099.8h-454l-760.1,1233h480.8l-1491,2322.6h121.5c494.6-699.1,989.2-1398.1,1483.8-2097.1,72.4-94.4,144.2-194,214.5-299.1,13.2-19.7,26.2-39.4,38.9-59-13.7-.1-27.3-.3-41-.4-145-1.2-290.1-1.3-435.2-.2h0Z"/>
</svg>