<?xml version="1.0" encoding="UTF-8"?>
<svg id="Layer_1" xmlns="http://www.w3.org/2000/svg" version="1.1" xmlns:xlink="http://www.w3.org/1999/xlink" viewBox="0 0 1080 1080">
  <!-- Generator: Adobe Illustrator 29.5.1, SVG Export Plug-In . SVG Version: 2.1.0 Build 141)  -->
  <defs>
    <style>
      .st0 {
        fill: #fff;
      }

      .st1 {
        fill: url(#linear-gradient);
      }
    </style>
    <linearGradient id="linear-gradient" x1="476.6" y1="546.3" x2="476.6" y2="403.8" gradientUnits="userSpaceOnUse">
      <stop offset="0" stop-color="#ff55bc"/>
      <stop offset="0" stop-color="#fe54bd"/>
      <stop offset=".4" stop-color="#f64bc3"/>
      <stop offset=".6" stop-color="#00cfff"/>
    </linearGradient>
  </defs>
  <g>
    <path class="st0" d="M406,695.3c-.5,3.3-3.6,5.3-9.1,5.3h-10.4l2.9-19.5h9.8c5,0,7.5,1.9,7,5-.3,2.1-1.7,3.6-3.6,4.4,2.4.6,3.7,2.3,3.3,4.9ZM402.9,695.1c.3-2.3-1.4-3.3-4.8-3.3h-7.1l-1,6.5h7.1c3.4,0,5.5-1,5.8-3.2ZM392.2,683.3l-.9,6.2h6.4c3.2,0,5.1-1.1,5.4-3.1.3-2.1-1.3-3.1-4.5-3.1h-6.4Z"/>
    <path class="st0" d="M441.7,698.2l-.4,2.4h-15.8l2.9-19.5h15.3l-.4,2.4h-12.2l-.9,6h10.9l-.4,2.4h-10.9l-.9,6.3h12.7Z"/>
    <path class="st0" d="M471,693.8l-1,6.8h-3.1l1-6.8-6.7-12.7h3.3l5.4,10.3,8.5-10.3h3.1l-10.5,12.8Z"/>
    <path class="st0" d="M496,690.8c.8-5.7,6.4-10,13.1-10s10.9,4.2,10,10c-.8,5.7-6.4,10-13,10s-11-4.3-10.1-10ZM516,690.8c.6-4.3-2.5-7.5-7.3-7.5s-8.9,3.2-9.6,7.5c-.6,4.3,2.5,7.5,7.4,7.5s8.9-3.2,9.5-7.5Z"/>
    <path class="st0" d="M559.5,681.1l-2.9,19.5h-2.5l-10.9-14.6-2.2,14.6h-3.1l2.9-19.5h2.5l10.9,14.6,2.2-14.6h3.1Z"/>
    <path class="st0" d="M581.6,681.1h9.2c7,0,11.2,4,10.3,9.8-.9,5.8-6.2,9.8-13.2,9.8h-9.2l2.9-19.5ZM588,698.2c5.4,0,9.3-3,9.9-7.3.6-4.4-2.4-7.3-7.7-7.3h-5.9l-2.2,14.7h5.9Z"/>
    <path class="st0" d="M646.7,681.1h3.1l-2.9,19.5h-3.1l2.9-19.5Z"/>
    <path class="st0" d="M691.1,702.4c-1.6,1.5-3.6,2.3-5.8,2.3s-4.7-1.1-7.3-3.9c-6.2-.3-10.1-4.5-9.3-10,.8-5.7,6.4-10,13.1-10s10.9,4.2,10,10c-.7,4.9-4.8,8.6-10,9.7,1.3,1.4,2.5,2,3.9,2s2.9-.6,4.2-1.7l1.2,1.6ZM679.1,698.3c4.8,0,8.9-3.2,9.5-7.5.6-4.3-2.5-7.5-7.3-7.5s-9,3.2-9.6,7.5c-.6,4.3,2.5,7.5,7.4,7.5Z"/>
  </g>
  <g>
    <path class="st0" d="M231.7,627.7c0,15.7-11.6,23.1-27.5,23.1h-32l12.2-73.2h29.5c13.2,0,20.5,6,20.5,16.7s-4.4,15.5-10.9,18.7c5.1,2.5,8.2,7.4,8.2,14.6ZM217.7,627.5c0-5.4-3.6-7.5-9.2-7.5h-17.1l-3,18.1h16.7c7.8,0,12.6-3.6,12.6-10.6ZM196.3,590.4l-2.9,17.2h14.4c7.3,0,11.8-3.6,11.8-10.3s-3.3-6.9-9-6.9h-14.3Z"/>
    <path class="st0" d="M284.7,628.2l10.6,22.6h-14.9l-9.6-20.5h-12l-3.4,20.5h-14.2l12.2-73.2h24.9c15.2,0,23.9,8.4,23.9,22.7s-6.5,23.8-17.4,27.9ZM287.8,601.9c0-7.1-4.2-10.5-11.4-10.5h-11.2l-4.3,25.4h12c9.3,0,14.8-5.2,14.8-14.9Z"/>
    <path class="st0" d="M350.9,635.1h-28.4l-7.9,15.7h-15.1l39.5-73.2h14l15,73.2h-14.1l-2.9-15.7ZM348.5,622.3l-5.1-28.2-14.4,28.2h19.5Z"/>
    <path class="st0" d="M444.7,577.6l-12.2,73.2h-11.6l-22.8-45.8-7.7,45.8h-14l12.2-73.2h11.7l22.8,45.9,7.6-45.9h14Z"/>
    <path class="st0" d="M461.3,577.6h25.6c18.8,0,30.1,11.8,30.1,30.5s-15.4,42.6-38,42.6h-29.8l12.2-73.2ZM479.4,636.9c14.7,0,23.3-11.9,23.3-27.8s-5.8-17.6-17.4-17.6h-12.1l-7.6,45.4h13.8Z"/>
    <path class="st0" d="M572.7,591.4h-19.5l2.4-13.8h53.2l-2.4,13.8h-19.5l-9.9,59.4h-14.1l9.9-59.4Z"/>
    <path class="st0" d="M607.4,620.3c0-25,15.3-43.9,37.8-43.9s29.8,13,29.8,31.8-15.3,43.9-37.8,43.9-29.8-13-29.8-31.8ZM660.6,609.1c0-10.9-5.9-18.3-16.7-18.3s-22.2,13.1-22.2,28.5,5.9,18.3,16.7,18.3,22.2-13.1,22.2-28.5Z"/>
    <path class="st0" d="M742.1,600.4c0,18.6-11.4,30.2-29.7,30.2h-13.6l-3.3,20.2h-14.2l12.2-73.2h24.7c15.3,0,23.9,8.5,23.9,22.8ZM727.8,601.9c0-7.1-4.2-10.5-11.3-10.5h-11.1l-4.3,25.4h12c9.3,0,14.7-5.2,14.7-14.9Z"/>
    <path class="st0" d="M778.4,626.4c0-2.5.3-5.1.7-7.8l6.8-41h14.2l-6.8,40.7c-.3,2.3-.5,4.3-.5,6.2,0,8.9,4.2,13.2,11.8,13.2s13.5-5.6,15.9-19.3l6.8-40.7h13.9l-6.9,41.7c-3.7,21.6-14,32.7-31.2,32.7s-24.6-9.8-24.6-25.6Z"/>
    <path class="st0" d="M905.9,600.4c0,18.6-11.4,30.2-29.7,30.2h-13.6l-3.3,20.2h-14.2l12.2-73.2h24.7c15.3,0,23.9,8.5,23.9,22.8ZM891.6,601.9c0-7.1-4.2-10.5-11.3-10.5h-11.1l-4.3,25.4h12c9.3,0,14.7-5.2,14.7-14.9Z"/>
  </g>
  <path class="st0" d="M662.8,478.2h0c-.3-5.5-1.4-10.8-3.3-15.9-2.5-6.7-6.3-12.8-11.3-18.1-.6-.6-2.1-2.1-2.7-2.7-1.9-1.7-3.8-3.3-5.8-4.7-.6-.4-1-.7-1.6-1.1-.2-.2-.2-.4,0-.6h0c.2-.3.6-.7.8-.9,3.5-3.6,6.4-7.7,8.6-12.1,1.7-3.5,3-6.9,3.9-10.7,1.9-8,1.7-16.6-.6-24.5-.7-2.6-1.6-4.9-2.8-7.5-.2-.4-.8-1.7-1.1-2.1-2-3.7-4.4-7.1-7.3-10.2-.5-.5-2-2-2.5-2.5-2.8-2.5-5.6-4.6-9-6.6-4.3-2.5-9-4.4-14-5.7-3.2-.8-6.7-1.4-10.2-1.8-1.8-.2-3.2-.2-5.5-.3-.8,0-19.2,0-66.9,0-15.1,0-27.9,0-31,0-.2,0-.3,0-.4.2l-16.9,34c-.1.3,0,.6.4.6,7,0,29.8,0,88.3,0,8.4,0,8.8,0,11.5,0,1.9,0,3.7.1,4.4.2,3.1.3,6.1,1.1,8.5,2.6,1.3.8,2.5,1.7,3.6,2.7.7.7,1.1,1.2,1.7,1.9,2.7,3.6,3.9,8.1,3.4,12.9-.2,1.9-.6,4-1.3,5.7-1.5,3.9-4,7.1-7.3,9.3-1.5,1-2.9,1.7-4.7,2.3-.6.2-1,.3-1.7.5-1.5.4-3,.6-4.7.7-.9,0-6.8,0-17.7,0-15.8,0-14,0-14.3,0-.7.1-1.2.4-1.6.9-.2.2-.4.5-.7,1.1-.2.3-.9,1.7-1.7,3.2-2.2,4.1-5.1,9.7-8.5,16-2.4,4.4-5.5,10.3-6.1,11.4-.1.2-.4.7-.6,1.4-.1.3,0,.6.4.6,2.4,0,11.3,0,27.8,0,29.1,0,31.4,0,32.4,0,2.2.2,3.9.5,5.9,1,2.6.7,5.1,2,7.1,3.5.7.5,1.4,1.1,2,1.8.9.9,1.8,1.9,2.5,3,1.4,2.1,2.4,4.5,3.1,7.1.7,2.9,1,5.9.8,8.7-.4,4.9-2.2,9.4-5.4,13.7-1.5,1.9-3.3,3.9-5.1,5.3-2,1.7-3.9,3-6.3,4.1-.9.5-1.5.7-2.4,1.1-3.7,1.5-8,2.4-12.5,2.7-.3,0-.8,0-1,0-.2,0-2.6,0-5.8,0-6.4,0-66.7,0-75.5,0h-6.2s0,0,0,0h-.6c-.4,0-.7-.1-.7-.1s0,0,0,0,.8-1.6,1.9-3.6c1-2,2.5-4.7,3.2-6.1.7-1.4,2-3.8,2.9-5.5.8-1.6,2.8-5.4,4.4-8.4,1.6-3,3.3-6.2,3.8-7.2,1.5-2.8,3.6-6.8,7-13.4,1.8-3.4,3.5-6.8,3.9-7.4,1-1.9,5-9.6,7.8-14.9,3.1-6,6-11.5,12.3-23.5.8-1.6,2.8-5.4,4.4-8.5,1.6-3,3.2-6.2,3.6-7l.4-.8c.2-.3,0-.6-.4-.6h-28.3c-.1,0-.3,0-.3.2-11,14.4-21.9,28.8-32.9,43.2-.2.2-.4.5-.6.7.3,0,.6,0,.9,0h7.6c3.3,0,6.5,0,9.8,0,.3,0,.5,0,.8,0-.1.2-.3.4-.4.7-1.6,2.5-3.3,4.8-5,7-1.6,2.2-3.1,4.4-4.7,6.7-1.5,2.1-2.9,4.1-4.4,6.2-2.3,3.3-4.7,6.6-7,9.9-1.9,2.7-3.9,5.5-5.8,8.2-3.5,4.9-6.9,9.8-10.4,14.7-2.7,3.8-5.4,7.6-8.1,11.4-2.4,3.4-4.8,6.8-7.3,10.2-1.1,1.6-2.2,3.2-3.4,4.8l-2.1,3c-.6.8-1.2,1.6-1.7,2.5-3,4.2-5.9,8.4-8.9,12.6-.2.2-.3.4-.5.6,103,.3,146.6.2,153.5,0,.6,0,1.1,0,1.1,0,7.3-.3,14.6-1.5,21.3-3.6,5.4-1.6,10.5-3.6,15.1-6.1,5.9-3.1,11.2-7,15.7-11.4.9-.9,1.6-1.6,2.2-2.3,4.4-4.8,7.9-10.1,10.8-16.2,1.6-3.5,3.1-7.3,4.1-10.7,1.1-3.9,1.8-7.9,2-11.9.1-1.8.1-4.2,0-6Z"/>
  <path class="st0" d="M503.1,403.8h-29.6s-30.9,62.1-30.9,62.1h8.4s9.8,0,9.8,0l-.3.5c-.2.3-1,1.9-1.8,3.5-2.6,5-4.4,8.3-10.4,19.8-8,15.2-9.7,18.4-10.5,19.9-3.7,7-6.3,12-8.3,15.8-2.2,4.3-3.1,5.9-6,11.5-.7,1.3-1.5,2.8-1.8,3.4-.8,1.5-2.2,4.2-2.8,5.3l-.4.8h14.1c.8-1.2,3-4.8,6.1-9.6.4-.7,1.8-2.8,3-4.6,1.2-1.9,2.5-3.9,3-4.6.4-.7,1.8-2.8,2.9-4.6,2.9-4.6,4.8-7.5,7-11,1.1-1.7,2.9-4.5,4.1-6.4,1.2-1.8,3.4-5.3,4.9-7.7,1.5-2.4,3.3-5.1,3.9-6.1.6-1,1.8-2.9,2.7-4.2.9-1.3,1.9-3,2.3-3.6,1.2-1.9,11.3-17.7,14.6-22.9,1.4-2.1,2.4-3.7,4.9-7.7h-19.3l30.6-49.4Z"/>
  <path class="st1" d="M487.4,447.9c11.2-14.7,22.5-29.4,33.7-44.1h-18.2l-30.5,49.4h19.3l-59.8,93.1h4.9c19.8-28,39.6-56,59.5-84,2.9-3.8,5.8-7.8,8.6-12,.5-.8,1-1.6,1.6-2.4-.5,0-1.1,0-1.6,0-5.8,0-11.6,0-17.4,0Z"/>
</svg>