<?xml version="1.0" encoding="UTF-8"?>
<svg id="Layer_1" xmlns="http://www.w3.org/2000/svg" version="1.1" viewBox="0 0 1080 1080">
  <!-- Generator: Adobe Illustrator 29.5.1, SVG Export Plug-In . SVG Version: 2.1.0 Build 141)  -->
  <path d="M225.9,562.6c0,15.2-13.8,21.8-30.5,21.8h-37.7l13.1-68.5h34.6c15.5,0,23.4,6,23.4,16.4s-4.5,13.7-11.7,16.9c5.6,2.5,8.8,7.1,8.8,13.4ZM204.1,562c0-3-2.5-4.5-5.4-4.5h-14.2l-2.1,10.8h14.2c4.3,0,7.5-2.1,7.5-6.3ZM189.4,532l-2,10.2h11.2c5,0,7.3-2.3,7.3-6s-2.1-4.2-5.8-4.2h-10.7Z"/>
  <path d="M282.2,564.5l10.9,20h-22.8l-9.2-17.2h-5.4l-3.3,17.2h-22l13.1-68.5h29.3c17.3,0,27.1,8.3,27.1,22.5s-6.5,21.6-17.6,26ZM269.3,533.7h-7.4l-3.1,16.1h9c6.1,0,9.6-3.3,9.6-9.1s-3.2-7-8.2-7Z"/>
  <path d="M347.8,572.5h-24.9l-6.5,11.9h-23.2l41.6-68.5h21.6l15.5,68.5h-21.9l-2.1-11.9ZM344.8,555.8l-3.2-17.5-9.6,17.5h12.8Z"/>
  <path d="M453.3,515.9l-13.1,68.5h-18.1l-18.7-31.9-6.1,31.9h-21.5l13.1-68.5h18.1l18.7,31.9,6.1-31.9h21.5Z"/>
  <path d="M464.4,515.9h29.5c20.6,0,33.3,11.1,33.3,29.1s-17.1,39.5-40.8,39.5h-35l13.1-68.5ZM487.1,566.4c11.7,0,17.9-8.8,17.9-20.1s-4.8-12.4-13.6-12.4h-8.4l-6.2,32.5h10.3Z"/>
  <path d="M581.1,533.8h-19.1l3.5-17.9h60.2l-3.5,17.9h-19.1l-9.6,50.6h-22l9.6-50.6Z"/>
  <path d="M621.5,555.3c0-24.2,17.2-41,41.1-41s33.1,12.6,33.1,30.6-17.2,41-41.1,41-33.1-12.6-33.1-30.6ZM673.5,546.3c0-7.9-4.8-13.3-12.8-13.3s-17.1,9.7-17.1,21,4.8,13.3,12.8,13.3,17.1-9.7,17.1-21Z"/>
  <path d="M766.9,538.6c0,17.3-13,29-33,29h-11.3l-3.2,16.8h-22l13.1-68.5h29c17.5,0,27.4,8.4,27.4,22.7ZM744.6,540.7c0-4.9-3.2-7-8.2-7h-7.4l-3.1,16.1h9c6.1,0,9.6-3.3,9.6-9.1Z"/>
  <path d="M800.2,560.8c0-2.3.3-4.7.7-7.2l7.2-37.7h22l-7.1,37.3c-.4,1.9-.6,3.5-.6,5,0,6.2,3.2,9.1,8.8,9.1s9.8-3.8,11.8-14.1l7.1-37.3h21.6l-7.4,38.7c-3.9,20.6-15.8,31.4-35.8,31.4s-28.4-9.8-28.4-25.2Z"/>
  <path d="M938.7,538.6c0,17.3-13,29-33,29h-11.3l-3.2,16.8h-22l13.1-68.5h29c17.5,0,27.4,8.4,27.4,22.7ZM916.4,540.7c0-4.9-3.2-7-8.2-7h-7.4l-3.1,16.1h9c6.1,0,9.6-3.3,9.6-9.1Z"/>
</svg>