<svg width="2073" height="321" viewBox="0 0 2073 321" fill="none" xmlns="http://www.w3.org/2000/svg">
<path d="M-1502.9 481V0.886186H-1307.42C-1285.02 9.11671 -1265.13 23.5201 -1247.75 44.0964C-1230.37 64.6728 -1221.69 89.593 -1221.69 118.857C-1221.69 170.526 -1238.6 206.649 -1272.44 227.226V229.969C-1230.37 253.289 -1209.34 289.869 -1209.34 339.709C-1209.34 396.866 -1238.38 443.963 -1296.45 481H-1502.9ZM-1409.62 199.105H-1341.71C-1321.6 186.759 -1311.54 168.012 -1311.54 142.863C-1311.54 117.714 -1320.91 97.8235 -1339.66 83.1914H-1409.62V199.105ZM-1409.62 401.438H-1338.97C-1330.74 395.494 -1323.42 386.12 -1317.02 373.317C-1310.16 360.514 -1306.74 347.711 -1306.74 334.908C-1306.74 322.105 -1309.48 310.445 -1314.97 299.929C-1320.45 289.412 -1327.31 281.638 -1335.54 276.609H-1409.62V401.438ZM-1159.29 0.886186H-976.844C-948.038 10.4885 -923.575 28.3213 -903.456 54.3846C-882.879 79.9907 -872.591 111.541 -872.591 149.036C-872.591 210.307 -896.825 255.347 -945.294 284.153L-876.021 481H-972.043L-1030.34 306.101H-1066.69V481H-1159.29V0.886186ZM-1066.69 83.1914V229.283H-1007.71C-999.936 227.454 -991.476 219.681 -982.331 205.963C-972.729 191.789 -967.928 175.328 -967.928 156.58C-967.928 137.833 -972.043 121.372 -980.274 107.197C-988.047 93.0223 -995.82 85.0204 -1003.59 83.1914H-1066.69ZM-618.656 481L-633.059 404.868H-741.428L-755.831 481H-849.111L-756.517 0.886186H-614.541L-526.748 481H-618.656ZM-688.615 90.0502L-715.365 249.859L-730.454 331.479H-644.719L-660.494 249.859L-687.244 90.0502H-688.615ZM-272.813 481L-401.072 215.566L-404.502 216.937L-400.386 297.871V481H-486.807V0.886186H-417.533L-291.332 276.609L-287.903 275.237L-295.447 190.874V0.886186H-209.027V481H-272.813ZM-49.9194 401.438H11.8095C24.6126 385.434 34.6721 362.115 41.9881 331.479C49.7614 300.843 53.648 270.436 53.648 240.257C53.648 168.469 40.1591 116.114 13.1813 83.1914H-49.9194V401.438ZM-143.199 481V0.886186H55.7057C120.635 58.4999 153.1 136.69 153.1 235.456C153.1 333.765 122.693 415.613 61.8785 481H-143.199ZM393.789 83.1914H290.222V0.886186H590.636V83.1914H487.069V481H393.789V83.1914ZM829.905 0.886186C861.913 26.9495 885.69 61.9292 901.236 105.825C916.783 149.721 924.556 194.989 924.556 241.629C924.556 287.811 917.012 331.707 901.922 373.317C886.833 414.927 862.827 450.821 829.905 481H688.615C655.692 450.821 631.687 414.927 616.597 373.317C601.508 331.707 593.964 287.811 593.964 241.629C593.964 194.989 601.737 149.721 617.283 105.825C632.83 61.9292 656.607 26.9495 688.615 0.886186H829.905ZM734.568 401.438H783.951C795.383 388.178 804.985 366.687 812.758 336.966C820.989 306.787 825.104 275.008 825.104 241.629C825.104 208.25 821.217 176.928 813.444 147.664C805.671 117.943 796.069 96.4517 784.637 83.1914H734.568C723.137 96.4517 713.306 117.943 705.076 147.664C697.302 176.928 693.416 208.25 693.416 241.629C693.416 275.008 697.302 306.787 705.076 336.966C713.306 366.687 723.137 388.178 734.568 401.438ZM1070.64 83.1914V254.661H1131.69C1156.83 234.084 1169.41 203.906 1169.41 164.125C1169.41 147.207 1165.98 131.203 1159.12 116.114C1152.72 101.024 1144.95 90.0502 1135.8 83.1914H1070.64ZM978.049 481V0.886186H1163.92C1195.01 14.6037 1219.48 35.6373 1237.31 63.9869C1255.6 92.3365 1264.75 125.487 1264.75 163.439C1264.75 200.934 1255.37 235.685 1236.62 267.692C1217.88 299.7 1190.21 322.334 1153.63 335.594H1070.64V481H978.049ZM1543.46 401.438H1601.08C1611.14 390.464 1618.22 379.49 1622.34 368.516C1626.91 357.085 1629.2 340.395 1629.2 318.447V0.886186H1723.16V284.153C1723.16 307.473 1722.48 325.763 1721.11 339.023C1720.19 351.827 1717.45 367.602 1712.88 386.349C1705.1 419.728 1683.61 451.279 1648.4 481H1496.14C1460.93 452.193 1439.44 420.643 1431.67 386.349C1424.81 358.457 1421.38 324.391 1421.38 284.153V0.886186H1515.34V318.447C1515.34 340.395 1517.4 357.085 1521.52 368.516C1526.09 379.49 1533.4 390.464 1543.46 401.438ZM1878.42 83.1914V254.661H1939.47C1964.62 234.084 1977.19 203.906 1977.19 164.125C1977.19 147.207 1973.76 131.203 1966.9 116.114C1960.5 101.024 1952.73 90.0502 1943.58 83.1914H1878.42ZM1785.83 481V0.886186H1971.7C2002.8 14.6037 2027.26 35.6373 2045.09 63.9869C2063.38 92.3365 2072.53 125.487 2072.53 163.439C2072.53 200.934 2063.15 235.685 2044.41 267.692C2025.66 299.7 1997.99 322.334 1961.41 335.594H1878.42V481H1785.83Z" fill="black"/>
</svg>
